<svg width="500" height="500" viewBox="0 0 500 500" fill="none" xmlns="http://www.w3.org/2000/svg">
<path d="M177.25 103H162.604C142.092 103 131.828 103 123.994 106.992C117.102 110.503 111.503 116.102 107.992 122.994C104 130.828 104 141.092 104 161.604V337.404C104 357.916 104 368.166 107.992 376.001C111.503 382.892 117.102 388.501 123.994 392.012C131.82 396 142.072 396 162.543 396H177.25M177.25 103H338.404C358.916 103 369.157 103 376.992 106.992C383.883 110.503 389.501 116.102 393.012 122.994C397 130.82 397 141.072 397 161.543V337.466C397 357.937 397 368.174 393.012 376.001C389.501 382.892 383.883 388.501 376.992 392.012C369.165 396 358.928 396 338.457 396H177.25M177.25 103V396M250.5 231.188H323.75M250.5 176.25H323.75" stroke="white" stroke-width="20" stroke-linecap="round" stroke-linejoin="round"/>
</svg>
