<svg width="512" height="512" viewBox="0 0 512 512" fill="none" xmlns="http://www.w3.org/2000/svg">
<g filter="url(#filter0_d_1120_368)">
<path d="M6 162C6 105.995 6 77.9921 16.8993 56.6009C26.4867 37.7847 41.7847 22.4867 60.6009 12.8993C81.9921 2 109.995 2 166 2H346C402.005 2 430.008 2 451.399 12.8993C470.215 22.4867 485.513 37.7847 495.101 56.6009C506 77.9921 506 105.995 506 162V342C506 398.005 506 426.008 495.101 447.399C485.513 466.215 470.215 481.513 451.399 491.101C430.008 502 402.005 502 346 502H166C109.995 502 81.9921 502 60.6009 491.101C41.7847 481.513 26.4867 466.215 16.8993 447.399C6 426.008 6 398.005 6 342V162Z" fill="#FF894D"/>
</g>
<path d="M110 339.404V163.604C110 143.092 110 132.828 113.992 124.994C117.503 118.102 123.102 112.503 129.994 108.992C137.828 105 148.092 105 168.604 105H183.25H344.404C364.916 105 375.157 105 382.992 108.992C389.883 112.503 395.501 118.102 399.012 124.994C403 132.82 403 143.072 403 163.543V339.466C403 359.937 403 370.174 399.012 378.001C395.501 384.892 389.883 390.501 382.992 394.012C375.165 398 364.928 398 344.457 398H183.25H168.543C148.072 398 137.82 398 129.994 394.012C123.102 390.501 117.503 384.892 113.992 378.001C110 370.166 110 359.916 110 339.404Z" fill="#FF894D"/>
<path d="M183.25 105H168.604C148.092 105 137.828 105 129.994 108.992C123.102 112.503 117.503 118.102 113.992 124.994C110 132.828 110 143.092 110 163.604V339.404C110 359.916 110 370.166 113.992 378.001C117.503 384.892 123.102 390.501 129.994 394.012C137.82 398 148.072 398 168.543 398H183.25M183.25 105H344.404C364.916 105 375.157 105 382.992 108.992C389.883 112.503 395.501 118.102 399.012 124.994C403 132.82 403 143.072 403 163.543V339.466C403 359.937 403 370.174 399.012 378.001C395.501 384.892 389.883 390.501 382.992 394.012C375.165 398 364.928 398 344.457 398H183.25M183.25 105V398M256.5 233.188H329.75M256.5 178.25H329.75" stroke="white" stroke-width="20" stroke-linecap="round" stroke-linejoin="round"/>
<defs>
<filter id="filter0_d_1120_368" x="0" y="0" width="512" height="512" filterUnits="userSpaceOnUse" color-interpolation-filters="sRGB">
<feFlood flood-opacity="0" result="BackgroundImageFix"/>
<feColorMatrix in="SourceAlpha" type="matrix" values="0 0 0 0 0 0 0 0 0 0 0 0 0 0 0 0 0 0 127 0" result="hardAlpha"/>
<feOffset dy="4"/>
<feGaussianBlur stdDeviation="3"/>
<feComposite in2="hardAlpha" operator="out"/>
<feColorMatrix type="matrix" values="0 0 0 0 0 0 0 0 0 0 0 0 0 0 0 0 0 0 0.25 0"/>
<feBlend mode="normal" in2="BackgroundImageFix" result="effect1_dropShadow_1120_368"/>
<feBlend mode="normal" in="SourceGraphic" in2="effect1_dropShadow_1120_368" result="shape"/>
</filter>
</defs>
</svg>
