<svg width="512" height="512" viewBox="0 0 512 512" fill="none" xmlns="http://www.w3.org/2000/svg">
<path d="M110 339.404V163.604C110 143.092 110 132.828 113.992 124.994C117.503 118.102 123.102 112.503 129.994 108.992C137.828 105 148.092 105 168.604 105H183.25H344.404C364.916 105 375.157 105 382.992 108.992C389.883 112.503 395.501 118.102 399.012 124.994C403 132.82 403 143.072 403 163.543V339.466C403 359.937 403 370.174 399.012 378.001C395.501 384.892 389.883 390.501 382.992 394.012C375.165 398 364.928 398 344.457 398H183.25H168.543C148.072 398 137.82 398 129.994 394.012C123.102 390.501 117.503 384.892 113.992 378.001C110 370.166 110 359.916 110 339.404Z" fill="#FF894D"/>
<path d="M183.25 105H168.604C148.092 105 137.828 105 129.994 108.992C123.102 112.503 117.503 118.102 113.992 124.994C110 132.828 110 143.092 110 163.604V339.404C110 359.916 110 370.166 113.992 378.001C117.503 384.892 123.102 390.501 129.994 394.012C137.82 398 148.072 398 168.543 398H183.25M183.25 105H344.404C364.916 105 375.157 105 382.992 108.992C389.883 112.503 395.501 118.102 399.012 124.994C403 132.82 403 143.072 403 163.543V339.466C403 359.937 403 370.174 399.012 378.001C395.501 384.892 389.883 390.501 382.992 394.012C375.165 398 364.928 398 344.457 398H183.25M183.25 105V398M256.5 233.188H329.75M256.5 178.25H329.75" stroke="white" stroke-width="20" stroke-linecap="round" stroke-linejoin="round"/>
</svg>
