<svg width="526" height="516" viewBox="0 0 526 516" fill="none" xmlns="http://www.w3.org/2000/svg" xmlns:xlink="http://www.w3.org/1999/xlink">
<g filter="url(#filter0_d_1120_342)">
<path d="M6 166C6 109.995 6 81.9921 16.8993 60.6009C26.4867 41.7847 41.7847 26.4867 60.6009 16.8993C81.9921 6 109.995 6 166 6H346C402.005 6 430.008 6 451.399 16.8993C470.215 26.4867 485.513 41.7847 495.101 60.6009C506 81.9921 506 109.995 506 166V346C506 402.005 506 430.008 495.101 451.399C485.513 470.215 470.215 485.513 451.399 495.101C430.008 506 402.005 506 346 506H166C109.995 506 81.9921 506 60.6009 495.101C41.7847 485.513 26.4867 470.215 16.8993 451.399C6 430.008 6 402.005 6 346V166Z" fill="#007BFF"/>
</g>
<rect x="104" y="104" width="303" height="303" fill="url(#pattern0_1120_342)"/>
</svg>
