<svg width="512" height="512" viewBox="0 0 512 512" fill="none" xmlns="http://www.w3.org/2000/svg">
<g filter="url(#filter0_d_1120_359)">
<path d="M6 162C6 105.995 6 77.9921 16.8993 56.6009C26.4867 37.7847 41.7847 22.4867 60.6009 12.8993C81.9921 2 109.995 2 166 2H346C402.005 2 430.008 2 451.399 12.8993C470.215 22.4867 485.513 37.7847 495.101 56.6009C506 77.9921 506 105.995 506 162V342C506 398.005 506 426.008 495.101 447.399C485.513 466.215 470.215 481.513 451.399 491.101C430.008 502 402.005 502 346 502H166C109.995 502 81.9921 502 60.6009 491.101C41.7847 481.513 26.4867 466.215 16.8993 447.399C6 426.008 6 398.005 6 342V162Z" fill="#162F1B"/>
</g>
<path d="M141.737 305.063V220.663C141.737 211.573 141.737 207.025 143.508 203.553C145.066 200.499 147.551 198.017 150.609 196.461C154.085 194.692 158.647 194.692 167.749 194.692H141.336C127.537 194.692 120.641 194.692 116.725 192.283C111.499 189.068 108.536 183.181 109.06 177.073C109.453 172.492 113.56 166.952 121.788 155.858C124.167 152.65 125.358 151.045 126.814 149.82C128.757 148.186 131.061 147.026 133.532 146.44C135.385 146 137.374 146 141.372 146H369.613C373.611 146 375.605 146 377.458 146.44C379.928 147.026 382.232 148.186 384.175 149.82C385.631 151.045 386.826 152.642 389.206 155.851C397.434 166.944 401.548 172.491 401.941 177.072C402.465 183.18 399.491 189.068 394.264 192.283C390.348 194.692 383.436 194.692 369.637 194.692H343.264C352.365 194.692 356.907 194.692 360.383 196.461C363.441 198.017 365.937 200.499 367.495 203.553C369.257 207.006 369.257 211.524 369.256 220.516V305.122C369.256 323.266 369.256 332.341 365.717 339.278C362.601 345.386 357.61 350.353 351.494 353.465C344.548 357 335.464 357 317.296 357H193.691C175.523 357 166.426 357 159.48 353.465C153.364 350.353 148.396 345.387 145.28 339.279C141.737 332.335 141.737 323.243 141.737 305.063Z" fill="#162F1B"/>
<path d="M167.749 194.692H343.264M167.749 194.692C158.647 194.692 154.085 194.692 150.609 196.461C147.551 198.017 145.066 200.499 143.508 203.553C141.737 207.025 141.737 211.573 141.737 220.663V305.063C141.737 323.243 141.737 332.335 145.28 339.279C148.396 345.387 153.364 350.353 159.48 353.465C166.426 357 175.523 357 193.691 357H317.296C335.464 357 344.548 357 351.494 353.465C357.61 350.353 362.601 345.386 365.717 339.278C369.256 332.341 369.256 323.266 369.256 305.122V220.516C369.257 211.524 369.257 207.006 367.495 203.553C365.937 200.499 363.441 198.017 360.383 196.461C356.907 194.692 352.365 194.692 343.264 194.692M167.749 194.692H141.336C127.537 194.692 120.641 194.692 116.725 192.283C111.499 189.068 108.536 183.181 109.06 177.073C109.453 172.492 113.56 166.952 121.788 155.858C124.167 152.65 125.358 151.045 126.814 149.82C128.757 148.186 131.061 147.026 133.532 146.44C135.385 146 137.374 146 141.372 146H369.613C373.611 146 375.605 146 377.458 146.44C379.928 147.026 382.232 148.186 384.175 149.82C385.631 151.045 386.826 152.642 389.206 155.851C397.434 166.944 401.548 172.491 401.941 177.072C402.465 183.18 399.491 189.068 394.264 192.283C390.348 194.692 383.436 194.692 369.637 194.692H343.264M222.994 275.846H287.999" stroke="white" stroke-width="20" stroke-linecap="round" stroke-linejoin="round"/>
<defs>
<filter id="filter0_d_1120_359" x="0" y="0" width="512" height="512" filterUnits="userSpaceOnUse" color-interpolation-filters="sRGB">
<feFlood flood-opacity="0" result="BackgroundImageFix"/>
<feColorMatrix in="SourceAlpha" type="matrix" values="0 0 0 0 0 0 0 0 0 0 0 0 0 0 0 0 0 0 127 0" result="hardAlpha"/>
<feOffset dy="4"/>
<feGaussianBlur stdDeviation="3"/>
<feComposite in2="hardAlpha" operator="out"/>
<feColorMatrix type="matrix" values="0 0 0 0 0 0 0 0 0 0 0 0 0 0 0 0 0 0 0.25 0"/>
<feBlend mode="normal" in2="BackgroundImageFix" result="effect1_dropShadow_1120_359"/>
<feBlend mode="normal" in="SourceGraphic" in2="effect1_dropShadow_1120_359" result="shape"/>
</filter>
</defs>
</svg>
