<svg width="500" height="500" viewBox="0 0 500 500" fill="none" xmlns="http://www.w3.org/2000/svg">
<path d="M161.749 192.692H337.264M161.749 192.692C152.647 192.692 148.085 192.692 144.609 194.461C141.551 196.017 139.066 198.499 137.508 201.553C135.737 205.025 135.737 209.573 135.737 218.663V303.063C135.737 321.243 135.737 330.335 139.28 337.279C142.396 343.387 147.364 348.353 153.48 351.465C160.426 355 169.523 355 187.691 355H311.296C329.464 355 338.548 355 345.494 351.465C351.61 348.353 356.601 343.386 359.717 337.278C363.256 330.341 363.256 321.266 363.256 303.122V218.516C363.257 209.524 363.257 205.006 361.495 201.553C359.937 198.499 357.441 196.017 354.383 194.461C350.907 192.692 346.365 192.692 337.264 192.692M161.749 192.692H135.336C121.537 192.692 114.641 192.692 110.725 190.283C105.499 187.068 102.536 181.181 103.06 175.073C103.453 170.492 107.56 164.952 115.788 153.858C118.167 150.65 119.358 149.045 120.814 147.82C122.757 146.186 125.061 145.026 127.532 144.44C129.385 144 131.374 144 135.372 144H363.613C367.611 144 369.605 144 371.458 144.44C373.928 145.026 376.232 146.186 378.175 147.82C379.631 149.045 380.826 150.642 383.206 153.851C391.434 164.944 395.548 170.491 395.941 175.072C396.465 181.18 393.491 187.068 388.264 190.283C384.348 192.692 377.436 192.692 363.637 192.692H337.264M216.994 273.846H281.999" stroke="white" stroke-width="20" stroke-linecap="round" stroke-linejoin="round"/>
</svg>
