<svg width="500" height="500" viewBox="0 0 500 500" fill="none" xmlns="http://www.w3.org/2000/svg">
<path fill-rule="evenodd" clip-rule="evenodd" d="M129 139.635C129 127.134 139.164 117 151.703 117H347.297C359.836 117 370 127.134 370 139.635V390.365C370 402.866 359.836 413 347.297 413H151.703C139.164 413 129 402.866 129 390.365V139.635ZM151.703 134.412C148.809 134.412 146.464 136.75 146.464 139.635V390.365C146.464 393.25 148.809 395.588 151.703 395.588H347.297C350.191 395.588 352.536 393.25 352.536 390.365V139.635C352.536 136.75 350.191 134.412 347.297 134.412H151.703Z" fill="white"/>
<path fill-rule="evenodd" clip-rule="evenodd" d="M156.942 153.593C156.942 148.769 160.864 144.859 165.702 144.859H333.298C338.137 144.859 342.058 148.77 342.058 153.593V202.28C342.058 207.103 338.136 211.014 333.298 211.014H165.702C160.863 211.014 156.942 207.103 156.942 202.28V153.593ZM174.406 162.271V193.602H324.594V162.271H174.406Z" fill="white"/>
<path fill-rule="evenodd" clip-rule="evenodd" d="M156.965 230.896C156.965 226.665 160.405 223.235 164.649 223.235H205.228C209.472 223.235 212.912 226.665 212.912 230.896V257.316C212.912 261.547 209.472 264.977 205.228 264.977H164.649C160.405 264.977 156.965 261.547 156.965 257.316V230.896ZM170.936 237.164V251.048H198.941V237.164H170.936Z" fill="white"/>
<path fill-rule="evenodd" clip-rule="evenodd" d="M156.965 286.563C156.965 282.332 160.405 278.902 164.649 278.902H205.228C209.472 278.902 212.912 282.332 212.912 286.563V312.984C212.912 317.215 209.472 320.645 205.228 320.645H164.649C160.405 320.645 156.965 317.215 156.965 312.984V286.563ZM170.936 292.832V306.715H198.941V292.832H170.936Z" fill="white"/>
<path fill-rule="evenodd" clip-rule="evenodd" d="M156.965 342.235C156.965 338.004 160.405 334.574 164.649 334.574H205.228C209.472 334.574 212.912 338.004 212.912 342.235V368.655C212.912 372.887 209.472 376.317 205.228 376.317H164.649C160.405 376.317 156.965 372.887 156.965 368.655V342.235ZM170.936 348.504V362.387H198.941V348.504H170.936Z" fill="white"/>
<path fill-rule="evenodd" clip-rule="evenodd" d="M221.558 286.563C221.558 282.332 224.998 278.902 229.242 278.902H269.758C274.002 278.902 277.442 282.332 277.442 286.563V312.984C277.442 317.215 274.002 320.645 269.758 320.645H229.242C224.998 320.645 221.558 317.215 221.558 312.984V286.563ZM235.529 292.832V306.715H263.471V292.832H235.529Z" fill="white"/>
<path fill-rule="evenodd" clip-rule="evenodd" d="M221.558 230.896C221.558 226.665 224.998 223.235 229.242 223.235H269.758C274.002 223.235 277.442 226.665 277.442 230.896V257.316C277.442 261.547 274.002 264.977 269.758 264.977H229.242C224.998 264.977 221.558 261.547 221.558 257.316V230.896ZM235.529 237.164V251.048H263.471V237.164H235.529Z" fill="white"/>
<path fill-rule="evenodd" clip-rule="evenodd" d="M286.231 230.896C286.231 226.665 289.671 223.235 293.915 223.235H334.431C338.675 223.235 342.115 226.665 342.115 230.896V257.316C342.115 261.547 338.675 264.977 334.431 264.977H293.915C289.671 264.977 286.231 261.547 286.231 257.316V230.896ZM300.202 237.164V251.048H328.144V237.164H300.202Z" fill="white"/>
<path fill-rule="evenodd" clip-rule="evenodd" d="M286.231 286.563C286.231 282.332 289.671 278.902 293.915 278.902H334.431C338.675 278.902 342.115 282.332 342.115 286.563V368.656C342.115 372.887 338.675 376.317 334.431 376.317H293.915C289.671 376.317 286.231 372.887 286.231 368.656V286.563ZM300.202 292.832V362.387H328.144V292.832H300.202Z" fill="white"/>
<path fill-rule="evenodd" clip-rule="evenodd" d="M221.558 342.235C221.558 338.004 224.998 334.574 229.242 334.574H269.758C274.002 334.574 277.442 338.004 277.442 342.235V368.655C277.442 372.887 274.002 376.317 269.758 376.317H229.242C224.998 376.317 221.558 372.887 221.558 368.655V342.235ZM235.529 348.504V362.387H263.471V348.504H235.529Z" fill="white"/>
</svg>
