<svg width="512" height="512" viewBox="0 0 512 512" fill="none" xmlns="http://www.w3.org/2000/svg">
<path fill-rule="evenodd" clip-rule="evenodd" d="M135 141.635C135 129.134 145.164 119 157.703 119H353.297C365.836 119 376 129.134 376 141.635V392.365C376 404.866 365.836 415 353.297 415H157.703C145.164 415 135 404.866 135 392.365V141.635ZM157.703 136.412C154.809 136.412 152.464 138.75 152.464 141.635V392.365C152.464 395.25 154.809 397.588 157.703 397.588H353.297C356.191 397.588 358.536 395.25 358.536 392.365V141.635C358.536 138.75 356.191 136.412 353.297 136.412H157.703Z" fill="#E0E0E0"/>
<path fill-rule="evenodd" clip-rule="evenodd" d="M162.942 155.593C162.942 150.769 166.864 146.859 171.702 146.859H339.298C344.137 146.859 348.058 150.77 348.058 155.593V204.28C348.058 209.103 344.136 213.014 339.298 213.014H171.702C166.863 213.014 162.942 209.103 162.942 204.28V155.593ZM180.406 164.271V195.602H330.594V164.271H180.406Z" fill="#E0E0E0"/>
<path fill-rule="evenodd" clip-rule="evenodd" d="M162.965 232.896C162.965 228.665 166.405 225.235 170.649 225.235H211.228C215.472 225.235 218.912 228.665 218.912 232.896V259.316C218.912 263.547 215.472 266.977 211.228 266.977H170.649C166.405 266.977 162.965 263.547 162.965 259.316V232.896ZM176.936 239.164V253.048H204.941V239.164H176.936Z" fill="#E0E0E0"/>
<path fill-rule="evenodd" clip-rule="evenodd" d="M162.965 288.563C162.965 284.332 166.405 280.902 170.649 280.902H211.228C215.472 280.902 218.912 284.332 218.912 288.563V314.984C218.912 319.215 215.472 322.645 211.228 322.645H170.649C166.405 322.645 162.965 319.215 162.965 314.984V288.563ZM176.936 294.832V308.715H204.941V294.832H176.936Z" fill="#E0E0E0"/>
<path fill-rule="evenodd" clip-rule="evenodd" d="M162.965 344.235C162.965 340.004 166.405 336.574 170.649 336.574H211.228C215.472 336.574 218.912 340.004 218.912 344.235V370.655C218.912 374.887 215.472 378.317 211.228 378.317H170.649C166.405 378.317 162.965 374.887 162.965 370.655V344.235ZM176.936 350.504V364.387H204.941V350.504H176.936Z" fill="#E0E0E0"/>
<path fill-rule="evenodd" clip-rule="evenodd" d="M227.558 288.563C227.558 284.332 230.998 280.902 235.242 280.902H275.758C280.002 280.902 283.442 284.332 283.442 288.563V314.984C283.442 319.215 280.002 322.645 275.758 322.645H235.242C230.998 322.645 227.558 319.215 227.558 314.984V288.563ZM241.529 294.832V308.715H269.471V294.832H241.529Z" fill="#E0E0E0"/>
<path fill-rule="evenodd" clip-rule="evenodd" d="M227.558 232.896C227.558 228.665 230.998 225.235 235.242 225.235H275.758C280.002 225.235 283.442 228.665 283.442 232.896V259.316C283.442 263.547 280.002 266.977 275.758 266.977H235.242C230.998 266.977 227.558 263.547 227.558 259.316V232.896ZM241.529 239.164V253.048H269.471V239.164H241.529Z" fill="#E0E0E0"/>
<path fill-rule="evenodd" clip-rule="evenodd" d="M292.231 232.896C292.231 228.665 295.671 225.235 299.915 225.235H340.431C344.675 225.235 348.115 228.665 348.115 232.896V259.316C348.115 263.547 344.675 266.977 340.431 266.977H299.915C295.671 266.977 292.231 263.547 292.231 259.316V232.896ZM306.202 239.164V253.048H334.144V239.164H306.202Z" fill="#E0E0E0"/>
<path fill-rule="evenodd" clip-rule="evenodd" d="M292.231 288.563C292.231 284.332 295.671 280.902 299.915 280.902H340.431C344.675 280.902 348.115 284.332 348.115 288.563V370.656C348.115 374.887 344.675 378.317 340.431 378.317H299.915C295.671 378.317 292.231 374.887 292.231 370.656V288.563ZM306.202 294.832V364.387H334.144V294.832H306.202Z" fill="#E0E0E0"/>
<path fill-rule="evenodd" clip-rule="evenodd" d="M227.558 344.235C227.558 340.004 230.998 336.574 235.242 336.574H275.758C280.002 336.574 283.442 340.004 283.442 344.235V370.655C283.442 374.887 280.002 378.317 275.758 378.317H235.242C230.998 378.317 227.558 374.887 227.558 370.655V344.235ZM241.529 350.504V364.387H269.471V350.504H241.529Z" fill="#E0E0E0"/>
</svg>
