<svg width="512" height="512" viewBox="0 0 512 512" fill="none" xmlns="http://www.w3.org/2000/svg">
<path d="M223.99 152.239C220.067 142.431 210.568 136 200.004 136H164.474C150.957 136 140 146.955 140 160.471C140 275.361 233.139 368.5 348.029 368.5C361.545 368.5 372.5 357.542 372.5 344.025L372.506 308.489C372.506 297.925 366.076 288.428 356.269 284.505L322.214 270.888C313.404 267.364 303.374 268.95 296.084 275.024L287.295 282.355C277.031 290.908 261.929 290.228 252.481 280.78L227.733 256.009C218.285 246.562 217.587 231.471 226.141 221.207L233.469 212.419C239.544 205.129 241.144 195.096 237.62 186.286L223.99 152.239Z" fill="#162F1B" stroke="white" stroke-width="25" stroke-linecap="round" stroke-linejoin="round"/>
</svg>
