<svg width="512" height="512" viewBox="0 0 512 512" fill="none" xmlns="http://www.w3.org/2000/svg">
<g filter="url(#filter0_d_1120_334)">
<path d="M6 162C6 105.995 6 77.9921 16.8993 56.6009C26.4867 37.7847 41.7847 22.4867 60.6009 12.8993C81.9921 2 109.995 2 166 2H346C402.005 2 430.008 2 451.399 12.8993C470.215 22.4867 485.513 37.7847 495.101 56.6009C506 77.9921 506 105.995 506 162V342C506 398.005 506 426.008 495.101 447.399C485.513 466.215 470.215 481.513 451.399 491.101C430.008 502 402.005 502 346 502H166C109.995 502 81.9921 502 60.6009 491.101C41.7847 481.513 26.4867 466.215 16.8993 447.399C6 426.008 6 398.005 6 342V162Z" fill="#162F1B"/>
</g>
<path d="M223.99 152.239C220.067 142.431 210.568 136 200.004 136H164.474C150.957 136 140 146.955 140 160.471C140 275.361 233.139 368.5 348.029 368.5C361.545 368.5 372.5 357.542 372.5 344.025L372.506 308.489C372.506 297.925 366.076 288.428 356.269 284.505L322.214 270.888C313.404 267.364 303.374 268.95 296.084 275.024L287.295 282.355C277.031 290.908 261.929 290.228 252.481 280.78L227.733 256.009C218.285 246.562 217.587 231.471 226.141 221.207L233.469 212.419C239.544 205.129 241.144 195.096 237.62 186.286L223.99 152.239Z" fill="#162F1B" stroke="white" stroke-width="25" stroke-linecap="round" stroke-linejoin="round"/>
<defs>
<filter id="filter0_d_1120_334" x="0" y="0" width="512" height="512" filterUnits="userSpaceOnUse" color-interpolation-filters="sRGB">
<feFlood flood-opacity="0" result="BackgroundImageFix"/>
<feColorMatrix in="SourceAlpha" type="matrix" values="0 0 0 0 0 0 0 0 0 0 0 0 0 0 0 0 0 0 127 0" result="hardAlpha"/>
<feOffset dy="4"/>
<feGaussianBlur stdDeviation="3"/>
<feComposite in2="hardAlpha" operator="out"/>
<feColorMatrix type="matrix" values="0 0 0 0 0 0 0 0 0 0 0 0 0 0 0 0 0 0 0.25 0"/>
<feBlend mode="normal" in2="BackgroundImageFix" result="effect1_dropShadow_1120_334"/>
<feBlend mode="normal" in="SourceGraphic" in2="effect1_dropShadow_1120_334" result="shape"/>
</filter>
</defs>
</svg>
