<svg width="500" height="500" viewBox="0 0 500 500" fill="none" xmlns="http://www.w3.org/2000/svg">
<path d="M217.99 150.239C214.067 140.431 204.568 134 194.004 134H158.474C144.957 134 134 144.955 134 158.471C134 273.361 227.139 366.5 342.029 366.5C355.545 366.5 366.5 355.542 366.5 342.025L366.506 306.489C366.506 295.925 360.076 286.428 350.269 282.505L316.214 268.888C307.404 265.364 297.374 266.95 290.084 273.024L281.295 280.355C271.031 288.908 255.929 288.228 246.481 278.78L221.733 254.009C212.285 244.562 211.587 229.471 220.141 219.207L227.469 210.419C233.544 203.129 235.144 193.096 231.62 184.286L217.99 150.239Z" stroke="white" stroke-width="25" stroke-linecap="round" stroke-linejoin="round"/>
</svg>
