<svg width="500" height="500" viewBox="0 0 500 500" fill="none" xmlns="http://www.w3.org/2000/svg">
<path d="M206 322H293M206 278.5H293M337.413 177.913L292.094 132.594C287.081 127.581 284.569 125.069 281.644 123.276C279.049 121.686 276.213 120.515 273.254 119.804C270.753 119.204 268.145 119.05 264.005 119.013C262.62 119 261.062 119 259.283 119H194.403C178.161 119 170.034 119 163.831 122.161C158.374 124.941 153.941 129.374 151.161 134.831C148 141.034 148 149.161 148 165.403V333.603C148 349.844 148 357.961 151.161 364.164C153.941 369.621 158.374 374.062 163.831 376.842C170.028 380 178.146 380 194.356 380L304.645 380C320.855 380 328.96 380 335.157 376.842C340.614 374.062 345.062 369.621 347.842 364.164C351 357.967 351 349.862 351 333.652V210.722C351 208.944 350.998 207.385 350.986 206C350.948 201.861 350.793 199.24 350.193 196.739C349.482 193.78 348.306 190.951 346.716 188.356C344.923 185.43 342.429 182.929 337.413 177.913Z" stroke="white" stroke-width="20" stroke-linecap="round" stroke-linejoin="round"/>
<path d="M250.333 219.426V206.927M250.333 206.927V194.427M250.333 206.927H237.833M250.333 206.927H262.833M217 222.76V200.477C217 198.251 217 197.137 217.271 196.101C217.511 195.183 217.905 194.314 218.438 193.529C219.04 192.643 219.878 191.908 221.553 190.442L241.56 172.936C244.666 170.218 246.219 168.859 247.968 168.342C249.511 167.886 251.155 167.886 252.697 168.342C254.448 168.86 256.003 170.22 259.114 172.942L279.114 190.442C280.79 191.908 281.626 192.643 282.227 193.529C282.76 194.314 283.156 195.183 283.396 196.101C283.667 197.136 283.667 198.253 283.667 200.477V222.775C283.667 227.433 283.667 229.764 282.759 231.545C281.96 233.113 280.684 234.387 279.116 235.186C277.335 236.093 275.006 236.093 270.348 236.093H230.32C225.662 236.093 223.33 236.093 221.549 235.186C219.981 234.387 218.707 233.113 217.908 231.545C217 229.763 217 227.427 217 222.76Z" stroke="white" stroke-width="10" stroke-linecap="round" stroke-linejoin="round"/>
</svg>
