<svg width="512" height="512" viewBox="0 0 512 512" fill="none" xmlns="http://www.w3.org/2000/svg">
<path d="M212 324H299M212 280.5H299M343.413 179.913L298.094 134.594C293.081 129.581 290.569 127.069 287.644 125.276C285.049 123.686 282.213 122.515 279.254 121.804C276.753 121.204 274.145 121.05 270.005 121.013C268.62 121 267.062 121 265.283 121H200.403C184.161 121 176.034 121 169.831 124.161C164.374 126.941 159.941 131.374 157.161 136.831C154 143.034 154 151.161 154 167.403V335.603C154 351.844 154 359.961 157.161 366.164C159.941 371.621 164.374 376.062 169.831 378.842C176.028 382 184.146 382 200.356 382L310.645 382C326.855 382 334.96 382 341.157 378.842C346.614 376.062 351.062 371.621 353.842 366.164C357 359.967 357 351.862 357 335.652V212.722C357 210.944 356.998 209.385 356.986 208C356.948 203.861 356.793 201.24 356.193 198.739C355.482 195.78 354.306 192.951 352.716 190.356C350.923 187.43 348.429 184.929 343.413 179.913Z" stroke="white" stroke-width="20" stroke-linecap="round" stroke-linejoin="round"/>
<path d="M256.333 221.426V208.927M256.333 208.927V196.427M256.333 208.927H243.833M256.333 208.927H268.833M223 224.76V202.477C223 200.251 223 199.137 223.271 198.101C223.511 197.183 223.905 196.314 224.438 195.529C225.04 194.643 225.878 193.908 227.553 192.442L247.56 174.936C250.666 172.218 252.219 170.859 253.968 170.342C255.511 169.886 257.155 169.886 258.697 170.342C260.448 170.86 262.003 172.22 265.114 174.942L285.114 192.442C286.79 193.908 287.626 194.643 288.227 195.529C288.76 196.314 289.156 197.183 289.396 198.101C289.667 199.136 289.667 200.253 289.667 202.477V224.775C289.667 229.433 289.667 231.764 288.759 233.545C287.96 235.113 286.684 236.387 285.116 237.186C283.335 238.093 281.006 238.093 276.348 238.093H236.32C231.662 238.093 229.33 238.093 227.549 237.186C225.981 236.387 224.707 235.113 223.908 233.545C223 231.763 223 229.427 223 224.76Z" stroke="white" stroke-width="10" stroke-linecap="round" stroke-linejoin="round"/>
</svg>
