<svg width="512" height="512" viewBox="0 0 512 512" fill="none" xmlns="http://www.w3.org/2000/svg">
<g filter="url(#filter0_d_1105_360)">
<path d="M6 162C6 105.995 6 77.9921 16.8993 56.6009C26.4867 37.7847 41.7847 22.4867 60.6009 12.8993C81.9921 2 109.995 2 166 2H346C402.005 2 430.008 2 451.399 12.8993C470.215 22.4867 485.513 37.7847 495.101 56.6009C506 77.9921 506 105.995 506 162V342C506 398.005 506 426.008 495.101 447.399C485.513 466.215 470.215 481.513 451.399 491.101C430.008 502 402.005 502 346 502H166C109.995 502 81.9921 502 60.6009 491.101C41.7847 481.513 26.4867 466.215 16.8993 447.399C6 426.008 6 398.005 6 342V162Z" fill="#162F1B"/>
</g>
<path d="M306.094 149.594L351.413 194.913C356.429 199.929 358.923 202.43 360.716 205.356C362.306 207.951 363.482 210.78 364.193 213.739C364.793 216.24 364.948 218.861 364.986 223C364.998 224.385 365 225.944 365 227.722V350.652C365 366.862 365 374.967 361.842 381.164C359.062 386.621 354.614 391.062 349.157 393.842C342.96 397 334.855 397 318.645 397L208.356 397C192.146 397 184.028 397 177.831 393.842C172.374 391.062 167.941 386.621 165.161 381.164C162 374.961 162 366.844 162 350.603V182.403C162 166.161 162 158.034 165.161 151.831C167.941 146.374 172.374 141.941 177.831 139.161C184.034 136 192.161 136 208.403 136H273.283C275.062 136 276.62 136 278.005 136.013C282.145 136.05 284.753 136.204 287.254 136.804C290.213 137.515 293.049 138.686 295.644 140.276C298.569 142.069 301.081 144.581 306.094 149.594L306.094 149.594Z" fill="#162F1B" stroke="white" stroke-width="20" stroke-linecap="round" stroke-linejoin="round"/>
<defs>
<filter id="filter0_d_1105_360" x="0" y="0" width="512" height="512" filterUnits="userSpaceOnUse" color-interpolation-filters="sRGB">
<feFlood flood-opacity="0" result="BackgroundImageFix"/>
<feColorMatrix in="SourceAlpha" type="matrix" values="0 0 0 0 0 0 0 0 0 0 0 0 0 0 0 0 0 0 127 0" result="hardAlpha"/>
<feOffset dy="4"/>
<feGaussianBlur stdDeviation="3"/>
<feComposite in2="hardAlpha" operator="out"/>
<feColorMatrix type="matrix" values="0 0 0 0 0 0 0 0 0 0 0 0 0 0 0 0 0 0 0.25 0"/>
<feBlend mode="normal" in2="BackgroundImageFix" result="effect1_dropShadow_1105_360"/>
<feBlend mode="normal" in="SourceGraphic" in2="effect1_dropShadow_1105_360" result="shape"/>
</filter>
</defs>
</svg>
