<svg width="512" height="512" viewBox="0 0 512 512" fill="none" xmlns="http://www.w3.org/2000/svg">
<path d="M306.094 149.594L351.413 194.913C356.429 199.929 358.923 202.43 360.716 205.356C362.306 207.951 363.482 210.78 364.193 213.739C364.793 216.24 364.948 218.861 364.986 223C364.998 224.385 365 225.944 365 227.722V350.652C365 366.862 365 374.967 361.842 381.164C359.062 386.621 354.614 391.062 349.157 393.842C342.96 397 334.855 397 318.645 397L208.356 397C192.146 397 184.028 397 177.831 393.842C172.374 391.062 167.941 386.621 165.161 381.164C162 374.961 162 366.844 162 350.603V182.403C162 166.161 162 158.034 165.161 151.831C167.941 146.374 172.374 141.941 177.831 139.161C184.034 136 192.161 136 208.403 136H273.283C275.062 136 276.62 136 278.005 136.013C282.145 136.05 284.753 136.204 287.254 136.804C290.213 137.515 293.049 138.686 295.644 140.276C298.569 142.069 301.081 144.581 306.094 149.594L306.094 149.594Z" fill="#162F1B" stroke="white" stroke-width="20" stroke-linecap="round" stroke-linejoin="round"/>
</svg>
