<svg width="512" height="512" viewBox="0 0 512 512" fill="none" xmlns="http://www.w3.org/2000/svg">
<g filter="url(#filter0_d_1120_367)">
<path d="M6 162C6 105.995 6 77.9921 16.8993 56.6009C26.4867 37.7847 41.7847 22.4867 60.6009 12.8993C81.9921 2 109.995 2 166 2H346C402.005 2 430.008 2 451.399 12.8993C470.215 22.4867 485.513 37.7847 495.101 56.6009C506 77.9921 506 105.995 506 162V342C506 398.005 506 426.008 495.101 447.399C485.513 466.215 470.215 481.513 451.399 491.101C430.008 502 402.005 502 346 502H166C109.995 502 81.9921 502 60.6009 491.101C41.7847 481.513 26.4867 466.215 16.8993 447.399C6 426.008 6 398.005 6 342V162Z" fill="#162F1B"/>
</g>
<path d="M241.67 169.365L290.334 218.028C293.082 220.776 294.448 222.142 295.431 223.746C296.302 225.168 296.954 226.722 297.343 228.343C297.778 230.153 297.778 232.074 297.778 235.882V352.583V374.825C297.778 383.724 297.772 388.175 296.04 391.574C294.517 394.563 292.095 396.997 289.105 398.52C285.71 400.25 281.254 400.25 272.372 400.25L148.39 400.25C139.509 400.25 135.069 400.25 131.674 398.52C128.684 396.997 126.255 394.56 124.732 391.57C123 388.171 123 383.728 123 374.829V187.34C123 178.442 123 173.989 124.732 170.59C126.255 167.601 128.684 165.172 131.674 163.648C135.073 161.917 139.517 161.917 148.416 161.917H218.333H223.686C227.572 161.917 229.517 161.917 231.345 162.356C232.967 162.745 234.523 163.388 235.945 164.26C237.547 165.242 238.924 166.618 241.67 169.365Z" fill="#162F1B"/>
<path d="M218.333 161.917H223.686C227.572 161.917 229.517 161.917 231.345 162.356C232.967 162.745 234.523 163.388 235.945 164.26C237.547 165.242 238.924 166.618 241.67 169.365L290.334 218.028C293.082 220.776 294.448 222.142 295.431 223.746C296.302 225.168 296.954 226.722 297.343 228.343C297.778 230.153 297.778 232.074 297.778 235.882V352.583M218.333 161.917H148.416C139.517 161.917 135.073 161.917 131.674 163.648C128.684 165.172 126.255 167.601 124.732 170.59C123 173.989 123 178.442 123 187.34V374.829C123 383.728 123 388.171 124.732 391.57C126.255 394.56 128.684 396.997 131.674 398.52C135.069 400.25 139.509 400.25 148.39 400.25L272.372 400.25C281.254 400.25 285.71 400.25 289.105 398.52C292.095 396.997 294.517 394.563 296.04 391.574C297.772 388.175 297.778 383.724 297.778 374.825V352.583M218.333 161.917V215.939C218.333 224.837 218.333 229.284 220.065 232.683C221.588 235.672 224.017 238.108 227.007 239.631C230.403 241.361 234.842 241.361 243.723 241.361H297.772M234.222 161.918V139.674C234.222 130.775 234.222 126.323 235.954 122.924C237.477 119.934 239.906 117.505 242.896 115.982C246.295 114.25 250.74 114.25 259.638 114.25H329.556M329.556 114.25H334.908C338.794 114.25 340.739 114.25 342.567 114.689C344.189 115.078 345.745 115.722 347.167 116.593C348.77 117.575 350.146 118.952 352.892 121.698L401.556 170.361C404.304 173.109 405.67 174.476 406.653 176.079C407.524 177.501 408.176 179.055 408.566 180.676C409 182.486 409 184.408 409 188.215V327.159C409 336.057 408.994 340.508 407.262 343.907C405.739 346.897 403.327 349.33 400.337 350.853C396.941 352.583 392.491 352.583 383.61 352.583H297.778M329.556 114.25V168.272C329.556 177.171 329.556 181.617 331.287 185.016C332.811 188.006 335.24 190.441 338.229 191.964C341.625 193.694 346.064 193.694 354.945 193.694H408.994" stroke="white" stroke-width="20" stroke-linecap="round" stroke-linejoin="round"/>
<defs>
<filter id="filter0_d_1120_367" x="0" y="0" width="512" height="512" filterUnits="userSpaceOnUse" color-interpolation-filters="sRGB">
<feFlood flood-opacity="0" result="BackgroundImageFix"/>
<feColorMatrix in="SourceAlpha" type="matrix" values="0 0 0 0 0 0 0 0 0 0 0 0 0 0 0 0 0 0 127 0" result="hardAlpha"/>
<feOffset dy="4"/>
<feGaussianBlur stdDeviation="3"/>
<feComposite in2="hardAlpha" operator="out"/>
<feColorMatrix type="matrix" values="0 0 0 0 0 0 0 0 0 0 0 0 0 0 0 0 0 0 0.25 0"/>
<feBlend mode="normal" in2="BackgroundImageFix" result="effect1_dropShadow_1120_367"/>
<feBlend mode="normal" in="SourceGraphic" in2="effect1_dropShadow_1120_367" result="shape"/>
</filter>
</defs>
</svg>
