<svg width="500" height="500" viewBox="0 0 500 500" fill="none" xmlns="http://www.w3.org/2000/svg">
<path d="M212.333 159.917H217.686C221.572 159.917 223.517 159.917 225.345 160.356C226.967 160.745 228.523 161.388 229.945 162.26C231.547 163.242 232.924 164.618 235.67 167.365L284.334 216.028C287.082 218.776 288.448 220.142 289.431 221.746C290.302 223.168 290.954 224.722 291.343 226.343C291.778 228.153 291.778 230.074 291.778 233.882V350.583M212.333 159.917H142.416C133.517 159.917 129.073 159.917 125.674 161.648C122.684 163.172 120.255 165.601 118.732 168.59C117 171.989 117 176.442 117 185.34V372.829C117 381.728 117 386.171 118.732 389.57C120.255 392.56 122.684 394.997 125.674 396.52C129.069 398.25 133.509 398.25 142.39 398.25L266.372 398.25C275.254 398.25 279.71 398.25 283.105 396.52C286.095 394.997 288.517 392.563 290.04 389.574C291.772 386.175 291.778 381.724 291.778 372.825V350.583M212.333 159.917V213.939C212.333 222.837 212.333 227.284 214.065 230.683C215.588 233.672 218.017 236.108 221.007 237.631C224.403 239.361 228.842 239.361 237.723 239.361H291.772M228.222 159.918V137.674C228.222 128.775 228.222 124.323 229.954 120.924C231.477 117.934 233.906 115.505 236.896 113.982C240.295 112.25 244.74 112.25 253.638 112.25H323.556M323.556 112.25H328.908C332.794 112.25 334.739 112.25 336.567 112.689C338.189 113.078 339.745 113.722 341.167 114.593C342.77 115.575 344.146 116.952 346.892 119.698L395.556 168.361C398.304 171.109 399.67 172.476 400.653 174.079C401.524 175.501 402.176 177.055 402.566 178.676C403 180.486 403 182.408 403 186.215V325.159C403 334.057 402.994 338.508 401.262 341.907C399.739 344.897 397.327 347.33 394.337 348.853C390.941 350.583 386.491 350.583 377.61 350.583H291.778M323.556 112.25V166.272C323.556 175.171 323.556 179.617 325.287 183.016C326.811 186.006 329.24 188.441 332.229 189.964C335.625 191.694 340.064 191.694 348.945 191.694H402.994" stroke="white" stroke-width="20" stroke-linecap="round" stroke-linejoin="round"/>
</svg>
