<svg width="500" height="500" viewBox="0 0 500 500" fill="none" xmlns="http://www.w3.org/2000/svg">
<path d="M300.094 147.594L345.413 192.913C350.429 197.929 352.923 200.43 354.716 203.356C356.306 205.951 357.482 208.78 358.193 211.739C358.793 214.24 358.948 216.861 358.986 221C358.998 222.385 359 223.944 359 225.722V348.652C359 364.862 359 372.967 355.842 379.164C353.062 384.621 348.614 389.062 343.157 391.842C336.96 395 328.855 395 312.645 395L202.356 395C186.146 395 178.028 395 171.831 391.842C166.374 389.062 161.941 384.621 159.161 379.164C156 372.961 156 364.844 156 348.603V180.403C156 164.161 156 156.034 159.161 149.831C161.941 144.374 166.374 139.941 171.831 137.161C178.034 134 186.161 134 202.403 134H267.283C269.062 134 270.62 134 272.005 134.013C276.145 134.05 278.753 134.204 281.254 134.804C284.213 135.515 287.049 136.686 289.644 138.276C292.569 140.069 295.081 142.581 300.094 147.594L300.094 147.594Z" stroke="white" stroke-width="20" stroke-linecap="round" stroke-linejoin="round"/>
</svg>
