<svg width="526" height="516" viewBox="0 0 526 516" fill="none" xmlns="http://www.w3.org/2000/svg">
<g filter="url(#filter0_d_1120_363)">
<path d="M6 166C6 109.995 6 81.9921 16.8993 60.6009C26.4867 41.7847 41.7847 26.4867 60.6009 16.8993C81.9921 6 109.995 6 166 6H346C402.005 6 430.008 6 451.399 16.8993C470.215 26.4867 485.513 41.7847 495.101 60.6009C506 81.9921 506 109.995 506 166V346C506 402.005 506 430.008 495.101 451.399C485.513 470.215 470.215 485.513 451.399 495.101C430.008 506 402.005 506 346 506H166C109.995 506 81.9921 506 60.6009 495.101C41.7847 485.513 26.4867 470.215 16.8993 451.399C6 430.008 6 402.005 6 346V166Z" fill="#162F1B"/>
</g>
<path d="M298.094 138.594L343.413 183.913C348.429 188.929 350.923 191.43 352.716 194.356C354.306 196.951 355.482 199.78 356.193 202.739C356.793 205.24 356.948 207.861 356.986 212C356.998 213.385 357 214.944 357 216.722V339.652C357 355.862 357 363.967 353.842 370.164C351.062 375.621 346.614 380.062 341.157 382.842C334.96 386 326.855 386 310.645 386L200.356 386C184.146 386 176.028 386 169.831 382.842C164.374 380.062 159.941 375.621 157.161 370.164C154 363.961 154 355.844 154 339.603V171.403C154 155.161 154 147.034 157.161 140.831C159.941 135.374 164.374 130.941 169.831 128.161C176.034 125 184.161 125 200.403 125H265.283C267.062 125 268.62 125 270.005 125.013C274.145 125.05 276.753 125.204 279.254 125.804C282.213 126.515 285.049 127.686 287.644 129.276C290.569 131.069 293.081 133.581 298.094 138.594L298.094 138.594Z" stroke="white" stroke-width="20" stroke-linecap="round" stroke-linejoin="round"/>
<path d="M235 272.333L251 288.333M251 288.333L267 272.333M251 288.333V245.667M299 267C299 240.49 277.51 219 251 219C224.49 219 203 240.49 203 267C203 293.51 224.49 315 251 315C277.51 315 299 293.51 299 267Z" stroke="white" stroke-width="15" stroke-linecap="round" stroke-linejoin="round"/>
</svg>
