<svg width="520" height="512" viewBox="0 0 520 512" fill="none" xmlns="http://www.w3.org/2000/svg">
<path d="M292.094 138.594L337.413 183.913C342.429 188.929 344.923 191.43 346.716 194.356C348.306 196.951 349.482 199.78 350.193 202.739C350.793 205.24 350.948 207.861 350.986 212C350.998 213.385 351 214.944 351 216.722V339.652C351 355.862 351 363.967 347.842 370.164C345.062 375.621 340.614 380.062 335.157 382.842C328.96 386 320.855 386 304.645 386L194.356 386C178.146 386 170.028 386 163.831 382.842C158.374 380.062 153.941 375.621 151.161 370.164C148 363.961 148 355.844 148 339.603V171.403C148 155.161 148 147.034 151.161 140.831C153.941 135.374 158.374 130.941 163.831 128.161C170.034 125 178.161 125 194.403 125H259.283C261.062 125 262.62 125 264.005 125.013C268.145 125.05 270.753 125.204 273.254 125.804C276.213 126.515 279.049 127.686 281.644 129.276C284.569 131.069 287.081 133.581 292.094 138.594L292.094 138.594Z" stroke="white" stroke-width="20" stroke-linecap="round" stroke-linejoin="round"/>
<path d="M229 272.333L245 288.333M245 288.333L261 272.333M245 288.333V245.667M293 267C293 240.49 271.51 219 245 219C218.49 219 197 240.49 197 267C197 293.51 218.49 315 245 315C271.51 315 293 293.51 293 267Z" stroke="white" stroke-width="15" stroke-linecap="round" stroke-linejoin="round"/>
</svg>
