<svg width="512" height="512" viewBox="0 0 512 512" fill="none" xmlns="http://www.w3.org/2000/svg">
<path d="M115.087 311.197C98.2721 340.338 89.8668 354.913 91.1228 366.869C92.2183 377.298 97.6886 386.772 106.167 392.936C115.885 400 132.69 400 166.297 400H345.703C379.31 400 396.113 400 405.83 392.936C414.309 386.772 419.782 377.298 420.877 366.869C422.133 354.913 413.73 340.338 396.915 311.197L307.244 155.797C290.429 126.656 282.018 112.089 271.041 107.199C261.467 102.934 250.527 102.934 240.953 107.199C229.981 112.087 221.575 126.655 204.773 155.771L115.087 311.197Z" fill="#007BFF"/>
<path d="M256 196.501V270.5M115.087 311.197C98.2721 340.338 89.8668 354.913 91.1228 366.869C92.2183 377.298 97.6886 386.772 106.167 392.936C115.885 400 132.69 400 166.297 400H345.703C379.31 400 396.113 400 405.83 392.936C414.309 386.772 419.782 377.298 420.877 366.869C422.133 354.913 413.73 340.338 396.915 311.197L307.244 155.797C290.429 126.656 282.018 112.089 271.041 107.199C261.467 102.934 250.527 102.934 240.953 107.199C229.981 112.087 221.575 126.655 204.773 155.771L115.087 311.197ZM256.939 326V327.85L255.079 327.854V326H256.939Z" stroke="white" stroke-width="20" stroke-linecap="round" stroke-linejoin="round"/>
</svg>
