<svg width="500" height="500" viewBox="0 0 500 500" fill="none" xmlns="http://www.w3.org/2000/svg">
<path d="M250 194.501V268.5M109.087 309.197C92.2721 338.338 83.8668 352.913 85.1228 364.869C86.2183 375.298 91.6886 384.772 100.167 390.936C109.885 398 126.69 398 160.297 398H339.703C373.31 398 390.113 398 399.83 390.936C408.309 384.772 413.782 375.298 414.877 364.869C416.133 352.913 407.73 338.338 390.915 309.197L301.244 153.797C284.429 124.656 276.018 110.089 265.041 105.199C255.467 100.934 244.527 100.934 234.953 105.199C223.981 110.087 215.575 124.655 198.773 153.771L109.087 309.197ZM250.939 324V325.85L249.079 325.854V324H250.939Z" stroke="white" stroke-width="20" stroke-linecap="round" stroke-linejoin="round"/>
</svg>
