<svg width="500" height="500" viewBox="0 0 500 500" fill="none" xmlns="http://www.w3.org/2000/svg">
<path d="M196.978 209.828C199.673 201.524 204.609 194.135 211.246 188.463C217.882 182.791 225.967 179.064 234.589 177.696C243.211 176.328 252.038 177.37 260.104 180.709C268.171 184.048 275.156 189.556 280.289 196.618C285.421 203.679 288.495 212.02 289.181 220.723C289.867 229.426 288.132 238.152 284.169 245.931C280.206 253.71 274.177 260.236 266.733 264.798C259.29 269.36 250.73 271.774 242 271.774V287.559M242 398C163.576 398 100 334.424 100 256C100 177.576 163.576 114 242 114C320.424 114 384 177.576 384 256C384 334.424 320.424 398 242 398ZM242.786 334.889V336.467L241.214 336.47V334.889H242.786Z" stroke="white" stroke-width="20" stroke-linecap="round" stroke-linejoin="round"/>
</svg>
