<svg width="512" height="512" viewBox="0 0 512 512" fill="none" xmlns="http://www.w3.org/2000/svg">
<g filter="url(#filter0_d_1120_366)">
<path d="M6 162C6 105.995 6 77.9921 16.8993 56.6009C26.4867 37.7847 41.7847 22.4867 60.6009 12.8993C81.9921 2 109.995 2 166 2H346C402.005 2 430.008 2 451.399 12.8993C470.215 22.4867 485.513 37.7847 495.101 56.6009C506 77.9921 506 105.995 506 162V342C506 398.005 506 426.008 495.101 447.399C485.513 466.215 470.215 481.513 451.399 491.101C430.008 502 402.005 502 346 502H166C109.995 502 81.9921 502 60.6009 491.101C41.7847 481.513 26.4867 466.215 16.8993 447.399C6 426.008 6 398.005 6 342V162Z" fill="#007BFF"/>
</g>
<path d="M106 258C106 336.424 169.576 400 248 400C326.424 400 390 336.424 390 258C390 179.576 326.424 116 248 116C169.576 116 106 179.576 106 258Z" fill="#007BFF"/>
<path d="M202.978 211.828C205.673 203.524 210.609 196.135 217.246 190.463C223.882 184.791 231.967 181.064 240.589 179.696C249.211 178.328 258.038 179.37 266.104 182.709C274.171 186.048 281.156 191.556 286.289 198.618C291.421 205.679 294.495 214.02 295.181 222.723C295.867 231.426 294.132 240.152 290.169 247.931C286.206 255.71 280.177 262.236 272.733 266.798C265.29 271.36 256.73 273.774 248 273.774V289.559M248 400C169.576 400 106 336.424 106 258C106 179.576 169.576 116 248 116C326.424 116 390 179.576 390 258C390 336.424 326.424 400 248 400ZM248.786 336.889V338.467L247.214 338.47V336.889H248.786Z" stroke="white" stroke-width="20" stroke-linecap="round" stroke-linejoin="round"/>
<defs>
<filter id="filter0_d_1120_366" x="0" y="0" width="512" height="512" filterUnits="userSpaceOnUse" color-interpolation-filters="sRGB">
<feFlood flood-opacity="0" result="BackgroundImageFix"/>
<feColorMatrix in="SourceAlpha" type="matrix" values="0 0 0 0 0 0 0 0 0 0 0 0 0 0 0 0 0 0 127 0" result="hardAlpha"/>
<feOffset dy="4"/>
<feGaussianBlur stdDeviation="3"/>
<feComposite in2="hardAlpha" operator="out"/>
<feColorMatrix type="matrix" values="0 0 0 0 0 0 0 0 0 0 0 0 0 0 0 0 0 0 0.25 0"/>
<feBlend mode="normal" in2="BackgroundImageFix" result="effect1_dropShadow_1120_366"/>
<feBlend mode="normal" in="SourceGraphic" in2="effect1_dropShadow_1120_366" result="shape"/>
</filter>
</defs>
</svg>
