<svg width="512" height="512" viewBox="0 0 512 512" fill="none" xmlns="http://www.w3.org/2000/svg">
<path d="M106 258C106 336.424 169.576 400 248 400C326.424 400 390 336.424 390 258C390 179.576 326.424 116 248 116C169.576 116 106 179.576 106 258Z" fill="#007BFF"/>
<path d="M202.978 211.828C205.673 203.524 210.609 196.135 217.246 190.463C223.882 184.791 231.967 181.064 240.589 179.696C249.211 178.328 258.038 179.37 266.104 182.709C274.171 186.048 281.156 191.556 286.289 198.618C291.421 205.679 294.495 214.02 295.181 222.723C295.867 231.426 294.132 240.152 290.169 247.931C286.206 255.71 280.177 262.236 272.733 266.798C265.29 271.36 256.73 273.774 248 273.774V289.559M248 400C169.576 400 106 336.424 106 258C106 179.576 169.576 116 248 116C326.424 116 390 179.576 390 258C390 336.424 326.424 400 248 400ZM248.786 336.889V338.467L247.214 338.47V336.889H248.786Z" stroke="white" stroke-width="20" stroke-linecap="round" stroke-linejoin="round"/>
</svg>
