<svg width="500" height="500" viewBox="0 0 500 500" fill="none" xmlns="http://www.w3.org/2000/svg">
<path d="M172.296 178.691C172.296 173.714 176.335 169.679 181.317 169.679H267.909C272.891 169.679 276.929 173.714 276.929 178.691C276.929 183.668 272.891 187.703 267.909 187.703H181.317C176.335 187.703 172.296 183.668 172.296 178.691Z" fill="white"/>
<path d="M172.296 236.369C172.296 231.392 176.335 227.357 181.317 227.357H239.045C244.027 227.357 248.065 231.392 248.065 236.369C248.065 241.347 244.027 245.382 239.045 245.382H181.317C176.335 245.382 172.296 241.347 172.296 236.369Z" fill="white"/>
<path d="M296.774 227.357C291.792 227.357 287.754 231.392 287.754 236.369C287.754 241.347 291.792 245.382 296.774 245.382H325.638C330.62 245.382 334.658 241.347 334.658 236.369C334.658 231.392 330.62 227.357 325.638 227.357H296.774Z" fill="white"/>
<path d="M172.296 279.628C172.296 274.651 176.335 270.616 181.317 270.616H253.477C258.459 270.616 262.497 274.651 262.497 279.628C262.497 284.606 258.459 288.641 253.477 288.641H181.317C176.335 288.641 172.296 284.606 172.296 279.628Z" fill="white"/>
<path d="M296.774 270.616C291.792 270.616 287.754 274.651 287.754 279.628C287.754 284.606 291.792 288.641 296.774 288.641H325.638C330.62 288.641 334.658 284.606 334.658 279.628C334.658 274.651 330.62 270.616 325.638 270.616H296.774Z" fill="white"/>
<path fill-rule="evenodd" clip-rule="evenodd" d="M147.04 135.432C147.04 132.446 149.463 130.025 152.452 130.025H302.186V178.691C302.186 191.632 312.686 202.123 325.638 202.123H359.914V285.036C359.914 287.027 361.53 288.641 363.522 288.641H374.346C376.339 288.641 377.954 287.027 377.954 285.036V189.949L315.541 112H152.452C139.5 112 129 122.491 129 135.432V366.146C129 379.087 139.5 389.578 152.452 389.578H307.598C309.59 389.578 311.206 387.964 311.206 385.973V375.159C311.206 373.168 309.59 371.554 307.598 371.554H152.452C149.463 371.554 147.04 369.133 147.04 366.146V135.432ZM350.167 184.098L320.226 146.704V178.691C320.226 181.677 322.649 184.098 325.638 184.098H350.167Z" fill="white"/>
<path d="M353.64 394.281C348.768 394.281 344.102 393.414 339.642 391.682C335.182 389.949 331.425 387.638 328.369 384.75C325.396 381.862 323.62 378.727 323.042 375.344L340.392 370.54C342.206 370.038 344.057 371.069 345.212 372.556C345.711 373.199 346.291 373.798 346.951 374.354C348.603 375.674 350.75 376.416 353.393 376.581C355.457 376.664 357.274 376.128 358.843 374.972C360.495 373.735 361.321 372.126 361.321 370.145C361.321 368.908 360.826 367.711 359.834 366.556C358.926 365.401 357.481 364.576 355.499 364.08L343.73 361.11C339.683 360.037 336.215 358.428 333.324 356.283C330.516 354.137 328.369 351.497 326.882 348.361C325.396 345.226 324.653 341.719 324.653 337.841C324.653 330.249 327.171 324.308 332.209 320.017C337.33 315.727 344.473 313.581 353.64 313.581C358.513 313.581 362.808 314.2 366.524 315.438C370.323 316.676 373.585 318.656 376.31 321.379C378.315 323.323 380.046 325.709 381.504 328.536C382.477 330.424 381.358 332.65 379.314 333.231L366.319 336.93C364.339 337.493 362.208 336.253 360.86 334.698C360.554 334.345 360.212 333.99 359.834 333.632C358.348 332.065 356.283 331.281 353.64 331.281C351.163 331.281 349.222 331.858 347.818 333.014C346.497 334.086 345.836 335.695 345.836 337.841C345.836 339.161 346.373 340.316 347.446 341.306C348.603 342.296 350.213 343.08 352.278 343.658L364.046 346.752C369.993 348.32 374.617 351.249 377.921 355.54C381.307 359.748 383 364.658 383 370.269C383 375.385 381.802 379.758 379.407 383.389C377.095 386.937 373.75 389.66 369.373 391.558C364.996 393.373 359.752 394.281 353.64 394.281ZM348.701 410C346.708 410 345.093 408.386 345.093 406.395V385.617H362.931V406.395C362.931 408.386 361.316 410 359.323 410H348.701ZM345.093 325.092V304.314C345.093 302.323 346.708 300.709 348.701 300.709H359.323C361.316 300.709 362.931 302.323 362.931 304.314V325.092H345.093Z" fill="white"/>
</svg>
