<svg width="512" height="512" viewBox="0 0 512 512" fill="none" xmlns="http://www.w3.org/2000/svg">
<path d="M178.296 180.691C178.296 175.714 182.335 171.679 187.317 171.679H273.909C278.891 171.679 282.929 175.714 282.929 180.691C282.929 185.668 278.891 189.703 273.909 189.703H187.317C182.335 189.703 178.296 185.668 178.296 180.691Z" fill="white"/>
<path d="M178.296 238.369C178.296 233.392 182.335 229.357 187.317 229.357H245.045C250.027 229.357 254.065 233.392 254.065 238.369C254.065 243.347 250.027 247.382 245.045 247.382H187.317C182.335 247.382 178.296 243.347 178.296 238.369Z" fill="white"/>
<path d="M302.774 229.357C297.792 229.357 293.754 233.392 293.754 238.369C293.754 243.347 297.792 247.382 302.774 247.382H331.638C336.62 247.382 340.658 243.347 340.658 238.369C340.658 233.392 336.62 229.357 331.638 229.357H302.774Z" fill="white"/>
<path d="M178.296 281.628C178.296 276.651 182.335 272.616 187.317 272.616H259.477C264.459 272.616 268.497 276.651 268.497 281.628C268.497 286.606 264.459 290.641 259.477 290.641H187.317C182.335 290.641 178.296 286.606 178.296 281.628Z" fill="white"/>
<path d="M302.774 272.616C297.792 272.616 293.754 276.651 293.754 281.628C293.754 286.606 297.792 290.641 302.774 290.641H331.638C336.62 290.641 340.658 286.606 340.658 281.628C340.658 276.651 336.62 272.616 331.638 272.616H302.774Z" fill="white"/>
<path fill-rule="evenodd" clip-rule="evenodd" d="M153.04 137.432C153.04 134.446 155.463 132.025 158.452 132.025H308.186V180.691C308.186 193.632 318.686 204.123 331.638 204.123H365.914V287.036C365.914 289.027 367.53 290.641 369.522 290.641H380.346C382.339 290.641 383.954 289.027 383.954 287.036V191.949L321.541 114H158.452C145.5 114 135 124.491 135 137.432V368.146C135 381.087 145.5 391.578 158.452 391.578H313.598C315.59 391.578 317.206 389.964 317.206 387.973V377.159C317.206 375.168 315.59 373.554 313.598 373.554H158.452C155.463 373.554 153.04 371.133 153.04 368.146V137.432ZM356.167 186.098L326.226 148.704V180.691C326.226 183.677 328.649 186.098 331.638 186.098H356.167Z" fill="white"/>
<path d="M359.64 396.281C354.768 396.281 350.102 395.414 345.642 393.682C341.182 391.949 337.425 389.638 334.369 386.75C331.396 383.862 329.62 380.727 329.042 377.344L346.392 372.54C348.206 372.038 350.057 373.069 351.212 374.556C351.711 375.199 352.291 375.798 352.951 376.354C354.603 377.674 356.75 378.416 359.393 378.581C361.457 378.664 363.274 378.128 364.843 376.972C366.495 375.735 367.321 374.126 367.321 372.145C367.321 370.908 366.826 369.711 365.834 368.556C364.926 367.401 363.481 366.576 361.499 366.08L349.73 363.11C345.683 362.037 342.215 360.428 339.324 358.283C336.516 356.137 334.369 353.497 332.882 350.361C331.396 347.226 330.653 343.719 330.653 339.841C330.653 332.249 333.171 326.308 338.209 322.017C343.33 317.727 350.473 315.581 359.64 315.581C364.513 315.581 368.808 316.2 372.524 317.438C376.323 318.676 379.585 320.656 382.31 323.379C384.315 325.323 386.046 327.709 387.504 330.536C388.477 332.424 387.358 334.65 385.314 335.231L372.319 338.93C370.339 339.493 368.208 338.253 366.86 336.698C366.554 336.345 366.212 335.99 365.834 335.632C364.348 334.065 362.283 333.281 359.64 333.281C357.163 333.281 355.222 333.858 353.818 335.014C352.497 336.086 351.836 337.695 351.836 339.841C351.836 341.161 352.373 342.316 353.446 343.306C354.603 344.296 356.213 345.08 358.278 345.658L370.046 348.752C375.993 350.32 380.617 353.249 383.921 357.54C387.307 361.748 389 366.658 389 372.269C389 377.385 387.802 381.758 385.407 385.389C383.095 388.937 379.75 391.66 375.373 393.558C370.996 395.373 365.752 396.281 359.64 396.281ZM354.701 412C352.708 412 351.093 410.386 351.093 408.395V387.617H368.931V408.395C368.931 410.386 367.316 412 365.323 412H354.701ZM351.093 327.092V306.314C351.093 304.323 352.708 302.709 354.701 302.709H365.323C367.316 302.709 368.931 304.323 368.931 306.314V327.092H351.093Z" fill="white"/>
</svg>
