<svg width="512" height="512" viewBox="0 0 512 512" fill="none" xmlns="http://www.w3.org/2000/svg">
<circle cx="256" cy="252" r="130" stroke="white" stroke-width="18" fill="none"/>
<path d="M256 122C256 122 206 177 206 252C206 327 256 382 256 382" stroke="white" stroke-width="18" stroke-linecap="round"/>
<path d="M256 122C256 122 306 177 306 252C306 327 256 382 256 382" stroke="white" stroke-width="18" stroke-linecap="round"/>
<line x1="136" y1="252" x2="376" y2="252" stroke="white" stroke-width="18" stroke-linecap="round"/>
<path d="M166 192C166 192 211 202 256 202C301 202 346 192 346 192" stroke="white" stroke-width="18" stroke-linecap="round"/>
<path d="M166 312C166 312 211 302 256 302C301 302 346 312 346 312" stroke="white" stroke-width="18" stroke-linecap="round"/>
</svg>
