<svg width="512" height="512" viewBox="0 0 512 512" fill="none" xmlns="http://www.w3.org/2000/svg">
<path d="M219 324H306M219 280.5H262.5H306M219 234.5H262.5H306M350.413 179.913L305.094 134.594C300.081 129.581 297.569 127.069 294.644 125.276C292.049 123.686 289.213 122.515 286.254 121.804C283.753 121.204 281.145 121.05 277.005 121.013C275.62 121 274.062 121 272.283 121H207.403C191.161 121 183.034 121 176.831 124.161C171.374 126.941 166.941 131.374 164.161 136.831C161 143.034 161 151.161 161 167.403V335.603C161 351.844 161 359.961 164.161 366.164C166.941 371.621 171.374 376.062 176.831 378.842C183.028 382 191.146 382 207.356 382L317.645 382C333.855 382 341.96 382 348.157 378.842C353.614 376.062 358.062 371.621 360.842 366.164C364 359.967 364 351.862 364 335.652V212.722C364 210.944 363.998 209.385 363.986 208C363.948 203.861 363.793 201.24 363.193 198.739C362.482 195.78 361.306 192.951 359.716 190.356C357.923 187.43 355.429 184.929 350.413 179.913Z" stroke="white" stroke-width="20" stroke-linecap="round" stroke-linejoin="round"/>
</svg>
