<svg width="512" height="512" viewBox="0 0 512 512" fill="none" xmlns="http://www.w3.org/2000/svg">
<g filter="url(#filter0_d_1120_346)">
<path d="M6 162C6 105.995 6 77.9921 16.8993 56.6009C26.4867 37.7847 41.7847 22.4867 60.6009 12.8993C81.9921 2 109.995 2 166 2H346C402.005 2 430.008 2 451.399 12.8993C470.215 22.4867 485.513 37.7847 495.101 56.6009C506 77.9921 506 105.995 506 162V342C506 398.005 506 426.008 495.101 447.399C485.513 466.215 470.215 481.513 451.399 491.101C430.008 502 402.005 502 346 502H166C109.995 502 81.9921 502 60.6009 491.101C41.7847 481.513 26.4867 466.215 16.8993 447.399C6 426.008 6 398.005 6 342V162Z" fill="#FF894D"/>
</g>
<path d="M219 324H306M219 280.5H262.5H306M219 234.5H262.5H306M350.413 179.913L305.094 134.594C300.081 129.581 297.569 127.069 294.644 125.276C292.049 123.686 289.213 122.515 286.254 121.804C283.753 121.204 281.145 121.05 277.005 121.013C275.62 121 274.062 121 272.283 121H207.403C191.161 121 183.034 121 176.831 124.161C171.374 126.941 166.941 131.374 164.161 136.831C161 143.034 161 151.161 161 167.403V335.603C161 351.844 161 359.961 164.161 366.164C166.941 371.621 171.374 376.062 176.831 378.842C183.028 382 191.146 382 207.356 382L317.645 382C333.855 382 341.96 382 348.157 378.842C353.614 376.062 358.062 371.621 360.842 366.164C364 359.967 364 351.862 364 335.652V212.722C364 210.944 363.998 209.385 363.986 208C363.948 203.861 363.793 201.24 363.193 198.739C362.482 195.78 361.306 192.951 359.716 190.356C357.923 187.43 355.429 184.929 350.413 179.913Z" stroke="white" stroke-width="20" stroke-linecap="round" stroke-linejoin="round"/>
<defs>
<filter id="filter0_d_1120_346" x="0" y="0" width="512" height="512" filterUnits="userSpaceOnUse" color-interpolation-filters="sRGB">
<feFlood flood-opacity="0" result="BackgroundImageFix"/>
<feColorMatrix in="SourceAlpha" type="matrix" values="0 0 0 0 0 0 0 0 0 0 0 0 0 0 0 0 0 0 127 0" result="hardAlpha"/>
<feOffset dy="4"/>
<feGaussianBlur stdDeviation="3"/>
<feComposite in2="hardAlpha" operator="out"/>
<feColorMatrix type="matrix" values="0 0 0 0 0 0 0 0 0 0 0 0 0 0 0 0 0 0 0.25 0"/>
<feBlend mode="normal" in2="BackgroundImageFix" result="effect1_dropShadow_1120_346"/>
<feBlend mode="normal" in="SourceGraphic" in2="effect1_dropShadow_1120_346" result="shape"/>
</filter>
</defs>
</svg>
