<svg width="500" height="500" viewBox="0 0 500 500" fill="none" xmlns="http://www.w3.org/2000/svg">
<path d="M197 322H284M196.094 226.553H283.094M197 278.5H284M328.413 177.913L283.094 132.594C278.081 127.581 275.569 125.069 272.644 123.276C270.049 121.686 267.213 120.515 264.254 119.804C261.753 119.204 259.145 119.05 255.005 119.013C253.62 119 252.062 119 250.283 119H185.403C169.161 119 161.034 119 154.831 122.161C149.374 124.941 144.941 129.374 142.161 134.831C139 141.034 139 149.161 139 165.403V333.603C139 349.844 139 357.961 142.161 364.164C144.941 369.621 149.374 374.062 154.831 376.842C161.028 380 169.146 380 185.356 380H295.645C311.855 380 319.96 380 326.157 376.842C331.614 374.062 336.062 369.621 338.842 364.164C342 357.967 342 349.862 342 333.652V210.722C342 208.944 341.998 207.385 341.986 206C341.948 201.861 341.793 199.24 341.193 196.739C340.482 193.78 339.306 190.951 337.716 188.356C335.923 185.43 333.429 182.929 328.413 177.913Z" stroke="white" stroke-width="20" stroke-linecap="round" stroke-linejoin="round"/>
</svg>
