<svg width="512" height="512" viewBox="0 0 512 512" fill="none" xmlns="http://www.w3.org/2000/svg">
<g filter="url(#filter0_d_1120_333)">
<path d="M6 162C6 105.995 6 77.9921 16.8993 56.6009C26.4867 37.7847 41.7847 22.4867 60.6009 12.8993C81.9921 2 109.995 2 166 2H346C402.005 2 430.008 2 451.399 12.8993C470.215 22.4867 485.513 37.7847 495.101 56.6009C506 77.9921 506 105.995 506 162V342C506 398.005 506 426.008 495.101 447.399C485.513 466.215 470.215 481.513 451.399 491.101C430.008 502 402.005 502 346 502H166C109.995 502 81.9921 502 60.6009 491.101C41.7847 481.513 26.4867 466.215 16.8993 447.399C6 426.008 6 398.005 6 342V162Z" fill="#FF894D"/>
</g>
<path d="M188.606 100H171.309C167.825 100 165 102.825 165 106.309V150.472C165 153.956 167.825 156.781 171.309 156.781H190.489C193.973 156.781 196.798 153.956 196.798 150.472C196.798 142.605 196.944 138.049 205.559 135.904C212.911 134.073 233.158 134.132 233.158 145.864V159.831C233.158 163.253 235.883 166.039 239.282 166.137C239.344 166.139 239.405 166.14 239.467 166.14C248.139 166.14 257.91 167.447 266.466 166.057C269.984 165.486 272.467 162.028 271.971 158.365C270.977 151.034 270.539 141.163 275.38 141.163C283.082 141.163 288.76 141.02 297.222 142.165C312.591 144.244 331.41 153.232 344.008 160.091C345.825 161.08 347.981 158.274 346.515 156.815C346.492 156.792 346.486 156.787 346.464 156.763C345.771 155.991 322.791 130.495 304.075 119.464C291.814 112.237 284.52 108.162 270.665 104.901C252.918 100.723 235.643 100 223.977 105.621C212.311 111.241 214.355 122.052 205.559 119.464C200.283 117.912 196.183 113.724 195.894 108.115C195.681 103.981 192.745 100 188.606 100Z" fill="white"/>
<path d="M239.467 166.14C239.405 166.14 239.344 166.139 239.282 166.137M239.467 166.14L239.282 166.137M239.467 166.14C248.139 166.14 257.91 167.447 266.466 166.057M239.282 166.137C235.883 166.039 233.158 163.253 233.158 159.831V145.864C233.158 134.132 212.911 134.073 205.559 135.904C196.944 138.049 196.798 142.605 196.798 150.472C196.798 153.956 193.973 156.781 190.489 156.781H171.309C167.825 156.781 165 153.956 165 150.472V106.309C165 102.825 167.825 100 171.309 100H188.606C192.745 100 195.681 103.981 195.894 108.115C196.183 113.724 200.283 117.912 205.559 119.464C214.355 122.052 212.311 111.241 223.977 105.621C235.643 100 252.918 100.723 270.665 104.901C284.52 108.162 291.814 112.237 304.075 119.464C322.791 130.495 345.771 155.991 346.464 156.763C346.486 156.787 346.492 156.792 346.515 156.815C347.981 158.274 345.825 161.08 344.008 160.091C331.41 153.232 312.591 144.244 297.222 142.165C288.76 141.02 283.082 141.163 275.38 141.163C270.539 141.163 270.977 151.034 271.971 158.365C272.467 162.028 269.984 165.486 266.466 166.057M239.282 166.137V252.804M266.466 166.057V252.804M266.466 252.804H268.202C271.686 252.804 274.511 255.628 274.511 259.113V397.691C274.511 401.175 271.686 404 268.202 404H237.547C234.062 404 231.238 401.175 231.238 397.691V259.113C231.238 255.628 234.062 252.804 237.547 252.804H239.282M266.466 252.804C266.466 252.804 258.24 254.811 252.874 254.811C247.509 254.811 239.282 252.804 239.282 252.804" stroke="white" stroke-width="10" stroke-linecap="round" stroke-linejoin="round"/>
<defs>
<filter id="filter0_d_1120_333" x="0" y="0" width="512" height="512" filterUnits="userSpaceOnUse" color-interpolation-filters="sRGB">
<feFlood flood-opacity="0" result="BackgroundImageFix"/>
<feColorMatrix in="SourceAlpha" type="matrix" values="0 0 0 0 0 0 0 0 0 0 0 0 0 0 0 0 0 0 127 0" result="hardAlpha"/>
<feOffset dy="4"/>
<feGaussianBlur stdDeviation="3"/>
<feComposite in2="hardAlpha" operator="out"/>
<feColorMatrix type="matrix" values="0 0 0 0 0 0 0 0 0 0 0 0 0 0 0 0 0 0 0.25 0"/>
<feBlend mode="normal" in2="BackgroundImageFix" result="effect1_dropShadow_1120_333"/>
<feBlend mode="normal" in="SourceGraphic" in2="effect1_dropShadow_1120_333" result="shape"/>
</filter>
</defs>
</svg>
