<svg width="500" height="500" viewBox="0 0 500 500" fill="none" xmlns="http://www.w3.org/2000/svg">
<path d="M182.606 98H165.309C161.825 98 159 100.825 159 104.309V148.472C159 151.956 161.825 154.781 165.309 154.781H184.489C187.973 154.781 190.798 151.956 190.798 148.472C190.798 140.605 190.944 136.049 199.559 133.904C206.911 132.073 227.158 132.132 227.158 143.864V157.831C227.158 161.253 229.883 164.039 233.282 164.137C233.344 164.139 233.405 164.14 233.467 164.14C242.139 164.14 251.91 165.447 260.466 164.057C263.984 163.486 266.467 160.028 265.971 156.365C264.977 149.034 264.539 139.163 269.38 139.163C277.082 139.163 282.76 139.02 291.222 140.165C306.591 142.244 325.41 151.232 338.008 158.091C339.825 159.08 341.981 156.274 340.515 154.815C340.492 154.792 340.486 154.787 340.464 154.763C339.771 153.991 316.791 128.495 298.075 117.464C285.814 110.237 278.52 106.162 264.665 102.901C246.918 98.7227 229.643 98 217.977 103.621C206.311 109.241 208.355 120.052 199.559 117.464C194.283 115.912 190.183 111.724 189.894 106.115C189.681 101.981 186.745 98 182.606 98Z" fill="white"/>
<path d="M233.467 164.14C233.405 164.14 233.344 164.139 233.282 164.137M233.467 164.14L233.282 164.137M233.467 164.14C242.139 164.14 251.91 165.447 260.466 164.057M233.282 164.137C229.883 164.039 227.158 161.253 227.158 157.831V143.864C227.158 132.132 206.911 132.073 199.559 133.904C190.944 136.049 190.798 140.605 190.798 148.472C190.798 151.956 187.973 154.781 184.489 154.781H165.309C161.825 154.781 159 151.956 159 148.472V104.309C159 100.825 161.825 98 165.309 98H182.606C186.745 98 189.681 101.981 189.894 106.115C190.183 111.724 194.283 115.912 199.559 117.464C208.355 120.052 206.311 109.241 217.977 103.621C229.643 98 246.918 98.7227 264.665 102.901C278.52 106.162 285.814 110.237 298.075 117.464C316.791 128.495 339.771 153.991 340.464 154.763C340.486 154.787 340.492 154.792 340.515 154.815C341.981 156.274 339.825 159.08 338.008 158.091C325.41 151.232 306.591 142.244 291.222 140.165C282.76 139.02 277.082 139.163 269.38 139.163C264.539 139.163 264.977 149.034 265.971 156.365C266.467 160.028 263.984 163.486 260.466 164.057M233.282 164.137V250.804M260.466 164.057V250.804M260.466 250.804H262.202C265.686 250.804 268.511 253.628 268.511 257.113V395.691C268.511 399.175 265.686 402 262.202 402H231.547C228.062 402 225.238 399.175 225.238 395.691V257.113C225.238 253.628 228.062 250.804 231.547 250.804H233.282M260.466 250.804C260.466 250.804 252.24 252.811 246.874 252.811C241.509 252.811 233.282 250.804 233.282 250.804" stroke="white" stroke-width="10" stroke-linecap="round" stroke-linejoin="round"/>
</svg>
