<svg width="512" height="512" viewBox="0 0 512 512" fill="none" xmlns="http://www.w3.org/2000/svg">
<g filter="url(#filter0_d_1120_349)">
<path d="M6 162C6 105.995 6 77.9921 16.8993 56.6009C26.4867 37.7847 41.7847 22.4867 60.6009 12.8993C81.9921 2 109.995 2 166 2H346C402.005 2 430.008 2 451.399 12.8993C470.215 22.4867 485.513 37.7847 495.101 56.6009C506 77.9921 506 105.995 506 162V342C506 398.005 506 426.008 495.101 447.399C485.513 466.215 470.215 481.513 451.399 491.101C430.008 502 402.005 502 346 502H166C109.995 502 81.9921 502 60.6009 491.101C41.7847 481.513 26.4867 466.215 16.8993 447.399C6 426.008 6 398.005 6 342V162Z" fill="#162F1B"/>
</g>
<path d="M140 324H227M140 280.5H183.5H227M140 234.5H183.5H227M271.413 179.913L226.094 134.594C221.081 129.581 218.569 127.069 215.644 125.276C213.049 123.686 210.213 122.515 207.254 121.804C204.753 121.204 202.145 121.05 198.005 121.013C196.62 121 195.062 121 193.283 121H128.403C112.161 121 104.034 121 97.8311 124.161C92.3744 126.941 87.9411 131.374 85.1608 136.831C82 143.034 82 151.161 82 167.403V335.603C82 351.844 82 359.961 85.1608 366.164C87.9412 371.621 92.3744 376.062 97.8311 378.842C104.028 382 112.146 382 128.356 382L238.645 382C254.855 382 262.96 382 269.157 378.842C274.614 376.062 279.062 371.621 281.842 366.164C285 359.967 285 351.862 285 335.652V212.722C285 210.944 284.998 209.385 284.986 208C284.948 203.861 284.793 201.24 284.193 198.739C283.482 195.78 282.306 192.951 280.716 190.356C278.923 187.43 276.429 184.929 271.413 179.913Z" stroke="white" stroke-width="20" stroke-linecap="round" stroke-linejoin="round"/>
<path d="M279.606 80H262.309C258.825 80 256 82.8246 256 86.309V130.472C256 133.956 258.825 136.781 262.309 136.781H281.489C284.973 136.781 287.798 133.956 287.798 130.472C287.798 122.605 287.944 118.049 296.559 115.904C303.911 114.073 324.158 114.132 324.158 125.864V139.831C324.158 143.253 326.883 146.039 330.282 146.137C330.344 146.139 330.405 146.14 330.467 146.14C339.139 146.14 348.91 147.447 357.466 146.057C360.984 145.486 363.467 142.028 362.971 138.365C361.977 131.034 361.539 121.163 366.38 121.163C374.082 121.163 379.76 121.02 388.222 122.165C403.591 124.244 422.41 133.232 435.008 140.091C436.825 141.08 438.981 138.274 437.515 136.815C437.492 136.792 437.486 136.787 437.464 136.763C436.771 135.991 413.791 110.495 395.075 99.4638C382.814 92.2365 375.52 88.1623 361.665 84.9008C343.918 80.7227 326.643 80 314.977 85.6205C303.311 91.241 305.355 102.052 296.559 99.4638C291.283 97.9116 287.183 93.7237 286.894 88.1146C286.681 83.9812 283.745 80 279.606 80Z" fill="white"/>
<path d="M330.467 146.14C330.405 146.14 330.344 146.139 330.282 146.137M330.467 146.14L330.282 146.137M330.467 146.14C339.139 146.14 348.91 147.447 357.466 146.057M330.282 146.137C326.883 146.039 324.158 143.253 324.158 139.831V125.864C324.158 114.132 303.911 114.073 296.559 115.904C287.944 118.049 287.798 122.605 287.798 130.472C287.798 133.956 284.973 136.781 281.489 136.781H262.309C258.825 136.781 256 133.956 256 130.472V86.309C256 82.8246 258.825 80 262.309 80H279.606C283.745 80 286.681 83.9812 286.894 88.1146C287.183 93.7237 291.283 97.9116 296.559 99.4638C305.355 102.052 303.311 91.241 314.977 85.6205C326.643 80 343.918 80.7227 361.665 84.9008C375.52 88.1623 382.814 92.2365 395.075 99.4638C413.791 110.495 436.771 135.991 437.464 136.763C437.486 136.787 437.492 136.792 437.515 136.815C438.981 138.274 436.825 141.08 435.008 140.091C422.41 133.232 403.591 124.244 388.222 122.165C379.76 121.02 374.082 121.163 366.38 121.163C361.539 121.163 361.977 131.034 362.971 138.365C363.467 142.028 360.984 145.486 357.466 146.057M330.282 146.137V232.804M357.466 146.057V232.804M357.466 232.804H359.202C362.686 232.804 365.511 235.628 365.511 239.113V377.691C365.511 381.175 362.686 384 359.202 384H328.547C325.062 384 322.238 381.175 322.238 377.691V239.113C322.238 235.628 325.062 232.804 328.547 232.804H330.282M357.466 232.804C357.466 232.804 349.24 234.811 343.874 234.811C338.509 234.811 330.282 232.804 330.282 232.804" stroke="white" stroke-width="10" stroke-linecap="round" stroke-linejoin="round"/>
<defs>
<filter id="filter0_d_1120_349" x="0" y="0" width="512" height="512" filterUnits="userSpaceOnUse" color-interpolation-filters="sRGB">
<feFlood flood-opacity="0" result="BackgroundImageFix"/>
<feColorMatrix in="SourceAlpha" type="matrix" values="0 0 0 0 0 0 0 0 0 0 0 0 0 0 0 0 0 0 127 0" result="hardAlpha"/>
<feOffset dy="4"/>
<feGaussianBlur stdDeviation="3"/>
<feComposite in2="hardAlpha" operator="out"/>
<feColorMatrix type="matrix" values="0 0 0 0 0 0 0 0 0 0 0 0 0 0 0 0 0 0 0.25 0"/>
<feBlend mode="normal" in2="BackgroundImageFix" result="effect1_dropShadow_1120_349"/>
<feBlend mode="normal" in="SourceGraphic" in2="effect1_dropShadow_1120_349" result="shape"/>
</filter>
</defs>
</svg>
