<svg width="500" height="500" viewBox="0 0 500 500" fill="none" xmlns="http://www.w3.org/2000/svg">
<path d="M134 322H221M134 278.5H177.5H221M134 232.5H177.5H221M265.413 177.913L220.094 132.594C215.081 127.581 212.569 125.069 209.644 123.276C207.049 121.686 204.213 120.515 201.254 119.804C198.753 119.204 196.145 119.05 192.005 119.013C190.62 119 189.062 119 187.283 119H122.403C106.161 119 98.0345 119 91.8311 122.161C86.3744 124.941 81.9411 129.374 79.1608 134.831C76 141.034 76 149.161 76 165.403V333.603C76 349.844 76 357.961 79.1608 364.164C81.9412 369.621 86.3744 374.062 91.8311 376.842C98.0285 380 106.146 380 122.356 380L232.645 380C248.855 380 256.96 380 263.157 376.842C268.614 374.062 273.062 369.621 275.842 364.164C279 357.967 279 349.862 279 333.652V210.722C279 208.944 278.998 207.385 278.986 206C278.948 201.861 278.793 199.24 278.193 196.739C277.482 193.78 276.306 190.951 274.716 188.356C272.923 185.43 270.429 182.929 265.413 177.913Z" stroke="white" stroke-width="20" stroke-linecap="round" stroke-linejoin="round"/>
<path d="M273.606 78H256.309C252.825 78 250 80.8246 250 84.309V128.472C250 131.956 252.825 134.781 256.309 134.781H275.489C278.973 134.781 281.798 131.956 281.798 128.472C281.798 120.605 281.944 116.049 290.559 113.904C297.911 112.073 318.158 112.132 318.158 123.864V137.831C318.158 141.253 320.883 144.039 324.282 144.137C324.344 144.139 324.405 144.14 324.467 144.14C333.139 144.14 342.91 145.447 351.466 144.057C354.984 143.486 357.467 140.028 356.971 136.365C355.977 129.034 355.539 119.163 360.38 119.163C368.082 119.163 373.76 119.02 382.222 120.165C397.591 122.244 416.41 131.232 429.008 138.091C430.825 139.08 432.981 136.274 431.515 134.815C431.492 134.792 431.486 134.787 431.464 134.763C430.771 133.991 407.791 108.495 389.075 97.4638C376.814 90.2365 369.52 86.1623 355.665 82.9008C337.918 78.7227 320.643 78 308.977 83.6205C297.311 89.241 299.355 100.052 290.559 97.4638C285.283 95.9116 281.183 91.7237 280.894 86.1146C280.681 81.9812 277.745 78 273.606 78Z" fill="white"/>
<path d="M324.467 144.14C324.405 144.14 324.344 144.139 324.282 144.137M324.467 144.14L324.282 144.137M324.467 144.14C333.139 144.14 342.91 145.447 351.466 144.057M324.282 144.137C320.883 144.039 318.158 141.253 318.158 137.831V123.864C318.158 112.132 297.911 112.073 290.559 113.904C281.944 116.049 281.798 120.605 281.798 128.472C281.798 131.956 278.973 134.781 275.489 134.781H256.309C252.825 134.781 250 131.956 250 128.472V84.309C250 80.8246 252.825 78 256.309 78H273.606C277.745 78 280.681 81.9812 280.894 86.1146C281.183 91.7237 285.283 95.9116 290.559 97.4638C299.355 100.052 297.311 89.241 308.977 83.6205C320.643 78 337.918 78.7227 355.665 82.9008C369.52 86.1623 376.814 90.2365 389.075 97.4638C407.791 108.495 430.771 133.991 431.464 134.763C431.486 134.787 431.492 134.792 431.515 134.815C432.981 136.274 430.825 139.08 429.008 138.091C416.41 131.232 397.591 122.244 382.222 120.165C373.76 119.02 368.082 119.163 360.38 119.163C355.539 119.163 355.977 129.034 356.971 136.365C357.467 140.028 354.984 143.486 351.466 144.057M324.282 144.137V230.804M351.466 144.057V230.804M351.466 230.804H353.202C356.686 230.804 359.511 233.628 359.511 237.113V375.691C359.511 379.175 356.686 382 353.202 382H322.547C319.062 382 316.238 379.175 316.238 375.691V237.113C316.238 233.628 319.062 230.804 322.547 230.804H324.282M351.466 230.804C351.466 230.804 343.24 232.811 337.874 232.811C332.509 232.811 324.282 230.804 324.282 230.804" stroke="white" stroke-width="10" stroke-linecap="round" stroke-linejoin="round"/>
</svg>
