<svg width="500" height="500" viewBox="0 0 500 500" fill="none" xmlns="http://www.w3.org/2000/svg">
<path d="M276 322.5H367M133 322.5H159M159 322.5C159 340.449 173.551 355 191.5 355C209.449 355 224 340.449 224 322.5C224 304.551 209.449 290 191.5 290C173.551 290 159 304.551 159 322.5ZM354 244.5H367M133 244.5H224M263 166.5H367M263 166.5C263 148.551 248.449 134 230.5 134C212.551 134 198 148.551 198 166.5C198 184.449 212.551 199 230.5 199C248.449 199 263 184.449 263 166.5ZM133 166.5H146M308.5 277C290.551 277 276 262.449 276 244.5C276 226.551 290.551 212 308.5 212C326.449 212 341 226.551 341 244.5C341 262.449 326.449 277 308.5 277Z" stroke="white" stroke-width="20" stroke-linecap="round" stroke-linejoin="round"/>
</svg>
