<svg width="512" height="512" viewBox="0 0 512 512" fill="none" xmlns="http://www.w3.org/2000/svg">
<path d="M165 324.5C165 342.449 179.551 357 197.5 357C215.449 357 230 342.449 230 324.5C230 306.551 215.449 292 197.5 292C179.551 292 165 306.551 165 324.5Z" fill="#162F1B"/>
<path d="M282 246.5C282 264.449 296.551 279 314.5 279C332.449 279 347 264.449 347 246.5C347 228.551 332.449 214 314.5 214C296.551 214 282 228.551 282 246.5Z" fill="#162F1B"/>
<path d="M204 168.5C204 186.449 218.551 201 236.5 201C254.449 201 269 186.449 269 168.5C269 150.551 254.449 136 236.5 136C218.551 136 204 150.551 204 168.5Z" fill="#162F1B"/>
<path d="M282 324.5H373M139 324.5H165M165 324.5C165 342.449 179.551 357 197.5 357C215.449 357 230 342.449 230 324.5C230 306.551 215.449 292 197.5 292C179.551 292 165 306.551 165 324.5ZM360 246.5H373M139 246.5H230M269 168.5H373M269 168.5C269 150.551 254.449 136 236.5 136C218.551 136 204 150.551 204 168.5C204 186.449 218.551 201 236.5 201C254.449 201 269 186.449 269 168.5ZM139 168.5H152M314.5 279C296.551 279 282 264.449 282 246.5C282 228.551 296.551 214 314.5 214C332.449 214 347 228.551 347 246.5C347 264.449 332.449 279 314.5 279Z" stroke="white" stroke-width="20" stroke-linecap="round" stroke-linejoin="round"/>
</svg>
