<svg width="512" height="512" viewBox="0 0 512 512" fill="none" xmlns="http://www.w3.org/2000/svg">
<g filter="url(#filter0_d_1120_364)">
<path d="M6 162C6 105.995 6 77.9921 16.8993 56.6009C26.4867 37.7847 41.7847 22.4867 60.6009 12.8993C81.9921 2 109.995 2 166 2H346C402.005 2 430.008 2 451.399 12.8993C470.215 22.4867 485.513 37.7847 495.101 56.6009C506 77.9921 506 105.995 506 162V342C506 398.005 506 426.008 495.101 447.399C485.513 466.215 470.215 481.513 451.399 491.101C430.008 502 402.005 502 346 502H166C109.995 502 81.9921 502 60.6009 491.101C41.7847 481.513 26.4867 466.215 16.8993 447.399C6 426.008 6 398.005 6 342V162Z" fill="#162F1B"/>
</g>
<path d="M165 324.5C165 342.449 179.551 357 197.5 357C215.449 357 230 342.449 230 324.5C230 306.551 215.449 292 197.5 292C179.551 292 165 306.551 165 324.5Z" fill="#162F1B"/>
<path d="M282 246.5C282 264.449 296.551 279 314.5 279C332.449 279 347 264.449 347 246.5C347 228.551 332.449 214 314.5 214C296.551 214 282 228.551 282 246.5Z" fill="#162F1B"/>
<path d="M204 168.5C204 186.449 218.551 201 236.5 201C254.449 201 269 186.449 269 168.5C269 150.551 254.449 136 236.5 136C218.551 136 204 150.551 204 168.5Z" fill="#162F1B"/>
<path d="M282 324.5H373M139 324.5H165M165 324.5C165 342.449 179.551 357 197.5 357C215.449 357 230 342.449 230 324.5C230 306.551 215.449 292 197.5 292C179.551 292 165 306.551 165 324.5ZM360 246.5H373M139 246.5H230M269 168.5H373M269 168.5C269 150.551 254.449 136 236.5 136C218.551 136 204 150.551 204 168.5C204 186.449 218.551 201 236.5 201C254.449 201 269 186.449 269 168.5ZM139 168.5H152M314.5 279C296.551 279 282 264.449 282 246.5C282 228.551 296.551 214 314.5 214C332.449 214 347 228.551 347 246.5C347 264.449 332.449 279 314.5 279Z" stroke="white" stroke-width="20" stroke-linecap="round" stroke-linejoin="round"/>
<defs>
<filter id="filter0_d_1120_364" x="0" y="0" width="512" height="512" filterUnits="userSpaceOnUse" color-interpolation-filters="sRGB">
<feFlood flood-opacity="0" result="BackgroundImageFix"/>
<feColorMatrix in="SourceAlpha" type="matrix" values="0 0 0 0 0 0 0 0 0 0 0 0 0 0 0 0 0 0 127 0" result="hardAlpha"/>
<feOffset dy="4"/>
<feGaussianBlur stdDeviation="3"/>
<feComposite in2="hardAlpha" operator="out"/>
<feColorMatrix type="matrix" values="0 0 0 0 0 0 0 0 0 0 0 0 0 0 0 0 0 0 0.25 0"/>
<feBlend mode="normal" in2="BackgroundImageFix" result="effect1_dropShadow_1120_364"/>
<feBlend mode="normal" in="SourceGraphic" in2="effect1_dropShadow_1120_364" result="shape"/>
</filter>
</defs>
</svg>
