<svg width="500" height="500" viewBox="0 0 500 500" fill="none" xmlns="http://www.w3.org/2000/svg">
<path d="M292.815 329.222V343.667C292.815 367.599 273.423 387 249.502 387C225.581 387 206.189 367.599 206.189 343.667V329.222M292.815 329.222H206.189M292.815 329.222H344.654C350.177 329.222 352.951 329.222 355.188 328.468C359.459 327.026 362.802 323.67 364.243 319.397C365 317.151 365 314.366 365 308.797C365 306.36 364.997 305.142 364.807 303.98C364.446 301.784 363.595 299.703 362.298 297.895C361.612 296.94 360.741 296.069 359.024 294.351L353.4 288.724C351.586 286.909 350.566 284.446 350.566 281.879V228.111C350.566 172.269 305.318 127 249.502 127C193.686 127 148.438 172.269 148.438 228.111V281.88C148.438 284.447 147.416 286.909 145.602 288.724L139.978 294.35C138.256 296.074 137.393 296.939 136.707 297.896C135.41 299.703 134.551 301.784 134.191 303.98C134 305.142 134 306.36 134 308.797C134 314.366 134 317.15 134.757 319.396C136.198 323.67 139.556 327.026 143.827 328.468C146.064 329.222 148.828 329.222 154.351 329.222H206.189" stroke="white" stroke-width="20" stroke-linecap="round" stroke-linejoin="round"/>
</svg>
