<svg width="512" height="512" viewBox="0 0 512 512" fill="none" xmlns="http://www.w3.org/2000/svg">
<g filter="url(#filter0_d_1120_336)">
<path d="M6 162C6 105.995 6 77.9921 16.8993 56.6009C26.4867 37.7847 41.7847 22.4867 60.6009 12.8993C81.9921 2 109.995 2 166 2H346C402.005 2 430.008 2 451.399 12.8993C470.215 22.4867 485.513 37.7847 495.101 56.6009C506 77.9921 506 105.995 506 162V342C506 398.005 506 426.008 495.101 447.399C485.513 466.215 470.215 481.513 451.399 491.101C430.008 502 402.005 502 346 502H166C109.995 502 81.9921 502 60.6009 491.101C41.7847 481.513 26.4867 466.215 16.8993 447.399C6 426.008 6 398.005 6 342V162Z" fill="#007BFF"/>
</g>
<path d="M145.978 296.35L151.602 290.724C153.416 288.909 154.438 286.447 154.438 283.88V230.111C154.438 174.269 199.686 129 255.502 129C311.318 129 356.566 174.269 356.566 230.111V283.879C356.566 286.446 357.586 288.909 359.4 290.724L365.024 296.351C366.741 298.069 367.612 298.94 368.298 299.895C369.595 301.703 370.446 303.784 370.807 305.98C370.997 307.142 371 308.36 371 310.797C371 316.366 371 319.151 370.243 321.397C368.802 325.67 365.459 329.026 361.188 330.468C358.951 331.222 356.177 331.222 350.654 331.222H298.815V345.667C298.815 369.599 279.423 389 255.502 389C231.581 389 212.189 369.599 212.189 345.667V331.222H160.351C154.828 331.222 152.064 331.222 149.827 330.468C145.556 329.026 142.198 325.67 140.757 321.396C140 319.15 140 316.366 140 310.797C140 308.36 140 307.142 140.191 305.98C140.551 303.784 141.41 301.703 142.707 299.896C143.393 298.939 144.256 298.074 145.978 296.35Z" fill="#007BFF"/>
<path d="M298.815 331.222V345.667C298.815 369.599 279.423 389 255.502 389C231.581 389 212.189 369.599 212.189 345.667V331.222M298.815 331.222H212.189M298.815 331.222H350.654C356.177 331.222 358.951 331.222 361.188 330.468C365.459 329.026 368.802 325.67 370.243 321.397C371 319.151 371 316.366 371 310.797C371 308.36 370.997 307.142 370.807 305.98C370.446 303.784 369.595 301.703 368.298 299.895C367.612 298.94 366.741 298.069 365.024 296.351L359.4 290.724C357.586 288.909 356.566 286.446 356.566 283.879V230.111C356.566 174.269 311.318 129 255.502 129C199.686 129 154.438 174.269 154.438 230.111V283.88C154.438 286.447 153.416 288.909 151.602 290.724L145.978 296.35C144.256 298.074 143.393 298.939 142.707 299.896C141.41 301.703 140.551 303.784 140.191 305.98C140 307.142 140 308.36 140 310.797C140 316.366 140 319.15 140.757 321.396C142.198 325.67 145.556 329.026 149.827 330.468C152.064 331.222 154.828 331.222 160.351 331.222H212.189" stroke="white" stroke-width="20" stroke-linecap="round" stroke-linejoin="round"/>
<defs>
<filter id="filter0_d_1120_336" x="0" y="0" width="512" height="512" filterUnits="userSpaceOnUse" color-interpolation-filters="sRGB">
<feFlood flood-opacity="0" result="BackgroundImageFix"/>
<feColorMatrix in="SourceAlpha" type="matrix" values="0 0 0 0 0 0 0 0 0 0 0 0 0 0 0 0 0 0 127 0" result="hardAlpha"/>
<feOffset dy="4"/>
<feGaussianBlur stdDeviation="3"/>
<feComposite in2="hardAlpha" operator="out"/>
<feColorMatrix type="matrix" values="0 0 0 0 0 0 0 0 0 0 0 0 0 0 0 0 0 0 0.25 0"/>
<feBlend mode="normal" in2="BackgroundImageFix" result="effect1_dropShadow_1120_336"/>
<feBlend mode="normal" in="SourceGraphic" in2="effect1_dropShadow_1120_336" result="shape"/>
</filter>
</defs>
</svg>
