<svg width="500" height="500" viewBox="0 0 500 500" fill="none" xmlns="http://www.w3.org/2000/svg">
<path d="M249.5 302.574C183.866 319.525 145.481 308.865 129.395 301.774C123.279 299.071 119.226 293.625 118.104 287.031C116.258 276.249 114 255.007 114 215.641C114 189.038 115.032 170.714 116.265 158.299C117.504 145.898 130.75 140.542 142.765 143.897C163.07 149.563 197.849 153.318 249.5 139.981C315.153 123.024 353.545 133.974 369.618 141.22C375.734 143.975 379.761 149.479 380.883 156.092C382.729 166.932 385 188.219 385 227.443C385 253.665 383.987 271.874 382.761 284.301C381.529 296.858 367.992 302.303 355.855 298.871C335.484 293.122 300.822 289.321 249.5 302.581V302.574Z" stroke="white" stroke-width="20" stroke-linecap="round" stroke-linejoin="round"/>
<path d="M288.214 221.32C288.214 231.587 284.135 241.435 276.875 248.695C269.615 255.955 259.768 260.034 249.5 260.034C239.232 260.034 229.385 255.955 222.125 248.695C214.864 241.435 210.786 231.587 210.786 221.32C210.786 211.052 214.864 201.205 222.125 193.945C229.385 186.684 239.232 182.605 249.5 182.605C259.768 182.605 269.615 186.684 276.875 193.945C284.135 201.205 288.214 211.052 288.214 221.32Z" stroke="white" stroke-width="20" stroke-linecap="round" stroke-linejoin="round"/>
<path d="M114.135 199.31C121.956 201.309 130.124 201.536 138.044 199.974C145.963 198.412 153.434 195.101 159.91 190.283C166.386 185.465 171.705 179.261 175.476 172.124C179.248 164.987 181.378 157.098 181.711 149.033" stroke="white" stroke-width="20" stroke-linecap="round" stroke-linejoin="round"/>
<path d="M181.713 311.634C182.063 303.266 180.469 294.931 177.056 287.283C173.643 279.635 168.504 272.881 162.042 267.553C155.58 262.225 147.972 258.467 139.813 256.573C131.655 254.68 123.169 254.703 115.021 256.64" stroke="white" stroke-width="20" stroke-linecap="round" stroke-linejoin="round"/>
<path d="M384.869 243.306C377.048 241.31 368.88 241.086 360.961 242.651C353.042 244.216 345.572 247.53 339.098 252.351C332.624 257.172 327.308 263.378 323.539 270.516C319.77 277.654 317.643 285.544 317.313 293.609" stroke="white" stroke-width="20" stroke-linecap="round" stroke-linejoin="round"/>
<path d="M383.943 185.999C375.799 187.926 367.32 187.941 359.17 186.043C351.02 184.145 343.42 180.386 336.965 175.059C330.511 169.733 325.378 162.985 321.967 155.343C318.557 147.701 316.963 139.373 317.309 131.012" stroke="white" stroke-width="20" stroke-linecap="round" stroke-linejoin="round"/>
<path d="M249.5 356.82V401.987" stroke="white" stroke-width="20" stroke-linecap="round" stroke-linejoin="round"/>
<path d="M301.119 324.559V369.725" stroke="white" stroke-width="20" stroke-linecap="round" stroke-linejoin="round"/>
<path d="M197.881 343.916V389.083" stroke="white" stroke-width="20" stroke-linecap="round" stroke-linejoin="round"/>
</svg>
