<svg width="512" height="512" viewBox="0 0 512 512" fill="none" xmlns="http://www.w3.org/2000/svg">
<g filter="url(#filter0_d_1120_362)">
<path d="M6 162C6 105.995 6 77.9921 16.8993 56.6009C26.4867 37.7847 41.7847 22.4867 60.6009 12.8993C81.9921 2 109.995 2 166 2H346C402.005 2 430.008 2 451.399 12.8993C470.215 22.4867 485.513 37.7847 495.101 56.6009C506 77.9921 506 105.995 506 162V342C506 398.005 506 426.008 495.101 447.399C485.513 466.215 470.215 481.513 451.399 491.101C430.008 502 402.005 502 346 502H166C109.995 502 81.9921 502 60.6009 491.101C41.7847 481.513 26.4867 466.215 16.8993 447.399C6 426.008 6 398.005 6 342V162Z" fill="#FF894D"/>
</g>
<path fill-rule="evenodd" clip-rule="evenodd" d="M109 193.443C109 181.048 119.031 171 131.406 171H379.594C391.969 171 402 181.048 402 193.443V331.557C402 343.952 391.969 354 379.594 354H131.406C119.031 354 109 343.952 109 331.557V193.443ZM131.406 188.264C128.55 188.264 126.235 190.583 126.235 193.443V331.557C126.235 334.417 128.55 336.736 131.406 336.736H379.594C382.45 336.736 384.765 334.417 384.765 331.557V193.443C384.765 190.583 382.45 188.264 379.594 188.264H131.406Z" fill="#E0E0E0"/>
<path fill-rule="evenodd" clip-rule="evenodd" d="M233.145 228.615C226.882 236.98 222.753 248.932 222.753 262.5C222.753 276.068 226.882 288.02 233.145 296.385C239.406 304.747 247.398 309.113 255.5 309.113C263.602 309.113 271.594 304.747 277.855 296.385C284.118 288.02 288.247 276.068 288.247 262.5C288.247 248.932 284.118 236.98 277.855 228.615C271.594 220.253 263.602 215.887 255.5 215.887C247.398 215.887 239.406 220.253 233.145 228.615ZM219.357 218.256C228.066 206.624 240.757 198.623 255.5 198.623C270.243 198.623 282.934 206.624 291.643 218.256C300.351 229.886 305.482 245.557 305.482 262.5C305.482 279.443 300.351 295.114 291.643 306.744C282.934 318.376 270.243 326.377 255.5 326.377C240.757 326.377 228.066 318.376 219.357 306.744C210.649 295.114 205.518 279.443 205.518 262.5C205.518 245.557 210.649 229.886 219.357 218.256Z" fill="#E0E0E0"/>
<path fill-rule="evenodd" clip-rule="evenodd" d="M178.648 193.871C175.977 201.896 170.725 212.304 160.48 222.566C150.235 232.828 139.845 238.089 131.833 240.765C127.842 242.097 124.46 242.782 121.996 243.135C120.764 243.311 119.758 243.405 119.017 243.454C118.646 243.479 118.341 243.493 118.106 243.5L117.808 243.508L117.699 243.509L117.655 243.509L117.635 243.509C117.635 243.509 117.618 243.509 117.618 234.877C117.618 226.245 117.609 226.245 117.609 226.245L117.587 226.245L117.563 226.245C117.607 226.244 117.702 226.24 117.87 226.228C118.206 226.206 118.78 226.156 119.559 226.044C121.117 225.821 123.48 225.356 126.383 224.386C132.159 222.458 140.153 218.511 148.293 210.358C156.432 202.205 160.372 194.198 162.297 188.412C163.265 185.504 163.73 183.137 163.952 181.576C164.063 180.797 164.114 180.222 164.136 179.885C164.147 179.717 164.152 179.609 164.153 179.565L164.153 179.602L164.153 179.616C164.153 179.616 164.153 179.632 172.771 179.632C181.388 179.632 181.388 179.641 181.388 179.641L181.388 179.669L181.388 179.713L181.387 179.822L181.379 180.122C181.372 180.357 181.358 180.662 181.333 181.034C181.284 181.776 181.19 182.783 181.014 184.018C180.662 186.486 179.978 189.874 178.648 193.871Z" fill="#E0E0E0"/>
<path fill-rule="evenodd" clip-rule="evenodd" d="M178.648 331.129C175.977 323.104 170.725 312.696 160.48 302.434C150.235 292.172 139.845 286.911 131.833 284.235C127.842 282.903 124.46 282.218 121.996 281.865C120.764 281.689 119.758 281.595 119.017 281.546C118.646 281.521 118.341 281.507 118.106 281.5L117.808 281.492L117.699 281.491L117.655 281.491L117.635 281.491C117.635 281.491 117.618 281.491 117.618 290.123C117.618 298.755 117.609 298.755 117.609 298.755L117.587 298.755L117.563 298.755C117.607 298.756 117.702 298.76 117.87 298.772C118.206 298.794 118.78 298.844 119.559 298.956C121.117 299.179 123.48 299.644 126.383 300.614C132.159 302.542 140.153 306.489 148.293 314.642C156.432 322.795 160.372 330.802 162.297 336.588C163.265 339.496 163.73 341.863 163.952 343.424C164.063 344.203 164.114 344.778 164.136 345.115C164.147 345.283 164.152 345.391 164.153 345.435L164.153 345.398L164.153 345.384C164.153 345.384 164.153 345.368 172.771 345.368C181.388 345.368 181.388 345.359 181.388 345.359L181.388 345.331L181.388 345.287L181.387 345.178L181.379 344.878C181.372 344.643 181.358 344.338 181.333 343.966C181.284 343.224 181.19 342.217 181.014 340.982C180.662 338.514 179.978 335.126 178.648 331.129Z" fill="#E0E0E0"/>
<path fill-rule="evenodd" clip-rule="evenodd" d="M332.352 331.129C335.023 323.104 340.275 312.696 350.52 302.434C360.765 292.172 371.155 286.911 379.167 284.235C383.158 282.903 386.54 282.218 389.004 281.865C390.236 281.689 391.242 281.595 391.983 281.546C392.354 281.521 392.659 281.507 392.894 281.5L393.192 281.492L393.301 281.491L393.345 281.491L393.365 281.491C393.365 281.491 393.382 281.491 393.382 290.123C393.382 298.755 393.391 298.755 393.391 298.755L393.413 298.755L393.437 298.755C393.393 298.756 393.298 298.76 393.13 298.772C392.794 298.794 392.22 298.844 391.441 298.956C389.883 299.179 387.52 299.644 384.617 300.614C378.841 302.542 370.847 306.489 362.707 314.642C354.568 322.795 350.628 330.802 348.703 336.588C347.735 339.496 347.27 341.863 347.048 343.424C346.937 344.203 346.886 344.778 346.864 345.115C346.853 345.283 346.848 345.391 346.847 345.435L346.847 345.398L346.847 345.384C346.847 345.384 346.847 345.368 338.229 345.368C329.612 345.368 329.612 345.359 329.612 345.359L329.612 345.331L329.612 345.287L329.613 345.178L329.621 344.878C329.628 344.643 329.642 344.338 329.667 343.966C329.716 343.224 329.81 342.217 329.986 340.982C330.338 338.514 331.022 335.126 332.352 331.129Z" fill="#E0E0E0"/>
<path fill-rule="evenodd" clip-rule="evenodd" d="M332.352 193.871C335.023 201.896 340.275 212.304 350.52 222.566C360.765 232.828 371.155 238.089 379.167 240.765C383.158 242.097 386.54 242.782 389.004 243.135C390.236 243.311 391.242 243.405 391.983 243.454C392.354 243.479 392.659 243.493 392.894 243.5L393.192 243.508L393.301 243.509L393.345 243.509L393.365 243.509C393.365 243.509 393.382 243.509 393.382 234.877C393.382 226.245 393.391 226.245 393.391 226.245L393.413 226.245L393.437 226.245C393.393 226.244 393.298 226.24 393.13 226.228C392.794 226.206 392.22 226.156 391.441 226.044C389.883 225.821 387.52 225.356 384.617 224.386C378.841 222.458 370.847 218.511 362.707 210.358C354.568 202.205 350.628 194.198 348.703 188.412C347.735 185.504 347.27 183.137 347.048 181.576C346.937 180.797 346.886 180.222 346.864 179.885C346.853 179.717 346.848 179.609 346.847 179.565L346.847 179.602L346.847 179.616C346.847 179.616 346.847 179.632 338.229 179.632C329.612 179.632 329.612 179.641 329.612 179.641L329.612 179.669L329.612 179.713L329.613 179.822L329.621 180.122C329.628 180.357 329.642 180.662 329.667 181.034C329.716 181.776 329.81 182.783 329.986 184.018C330.338 186.486 331.022 189.874 332.352 193.871Z" fill="#E0E0E0"/>
<defs>
<filter id="filter0_d_1120_362" x="0" y="0" width="512" height="512" filterUnits="userSpaceOnUse" color-interpolation-filters="sRGB">
<feFlood flood-opacity="0" result="BackgroundImageFix"/>
<feColorMatrix in="SourceAlpha" type="matrix" values="0 0 0 0 0 0 0 0 0 0 0 0 0 0 0 0 0 0 127 0" result="hardAlpha"/>
<feOffset dy="4"/>
<feGaussianBlur stdDeviation="3"/>
<feComposite in2="hardAlpha" operator="out"/>
<feColorMatrix type="matrix" values="0 0 0 0 0 0 0 0 0 0 0 0 0 0 0 0 0 0 0.25 0"/>
<feBlend mode="normal" in2="BackgroundImageFix" result="effect1_dropShadow_1120_362"/>
<feBlend mode="normal" in="SourceGraphic" in2="effect1_dropShadow_1120_362" result="shape"/>
</filter>
</defs>
</svg>
