<svg width="500" height="500" viewBox="0 0 500 500" fill="none" xmlns="http://www.w3.org/2000/svg">
<path d="M104 290.004V319.16C104 337.306 104 346.372 107.536 353.303C110.647 359.399 115.606 364.366 121.711 367.472C128.645 371 137.726 371 155.86 371H396M104 290.004V128M104 290.004L166.51 237.983L166.562 237.941C177.87 228.531 183.535 223.816 189.677 221.901C196.934 219.639 204.75 219.997 211.772 222.906C217.725 225.372 222.944 230.585 233.383 241.009L233.488 241.114C244.089 251.701 249.404 257.008 255.452 259.469C262.609 262.38 270.577 262.631 277.912 260.201C284.131 258.141 289.811 253.186 301.168 243.262L395.996 160.4" stroke="white" stroke-width="20" stroke-linecap="round" stroke-linejoin="round"/>
</svg>
