<svg width="512" height="512" viewBox="0 0 512 512" fill="none" xmlns="http://www.w3.org/2000/svg">
<g filter="url(#filter0_d_1120_338)">
<path d="M6 162C6 105.995 6 77.9921 16.8993 56.6009C26.4867 37.7847 41.7847 22.4867 60.6009 12.8993C81.9921 2 109.995 2 166 2H346C402.005 2 430.008 2 451.399 12.8993C470.215 22.4867 485.513 37.7847 495.101 56.6009C506 77.9921 506 105.995 506 162V342C506 398.005 506 426.008 495.101 447.399C485.513 466.215 470.215 481.513 451.399 491.101C430.008 502 402.005 502 346 502H166C109.995 502 81.9921 502 60.6009 491.101C41.7847 481.513 26.4867 466.215 16.8993 447.399C6 426.008 6 398.005 6 342V162Z" fill="#162F1B"/>
</g>
<path d="M110 292.004V321.16C110 339.306 110 348.372 113.536 355.303C116.647 361.399 121.606 366.366 127.711 369.472C134.645 373 143.726 373 161.86 373H402M110 292.004V130M110 292.004L172.51 239.983L172.562 239.941C183.87 230.531 189.535 225.816 195.677 223.901C202.934 221.639 210.75 221.997 217.772 224.906C223.725 227.372 228.944 232.585 239.383 243.009L239.488 243.114C250.089 253.701 255.404 259.008 261.452 261.469C268.609 264.38 276.577 264.631 283.912 262.201C290.131 260.141 295.811 255.186 307.168 245.262L401.996 162.4" stroke="white" stroke-width="20" stroke-linecap="round" stroke-linejoin="round"/>
<defs>
<filter id="filter0_d_1120_338" x="0" y="0" width="512" height="512" filterUnits="userSpaceOnUse" color-interpolation-filters="sRGB">
<feFlood flood-opacity="0" result="BackgroundImageFix"/>
<feColorMatrix in="SourceAlpha" type="matrix" values="0 0 0 0 0 0 0 0 0 0 0 0 0 0 0 0 0 0 127 0" result="hardAlpha"/>
<feOffset dy="4"/>
<feGaussianBlur stdDeviation="3"/>
<feComposite in2="hardAlpha" operator="out"/>
<feColorMatrix type="matrix" values="0 0 0 0 0 0 0 0 0 0 0 0 0 0 0 0 0 0 0.25 0"/>
<feBlend mode="normal" in2="BackgroundImageFix" result="effect1_dropShadow_1120_338"/>
<feBlend mode="normal" in="SourceGraphic" in2="effect1_dropShadow_1120_338" result="shape"/>
</filter>
</defs>
</svg>
