<svg width="512" height="512" viewBox="0 0 512 512" fill="none" xmlns="http://www.w3.org/2000/svg">
<path d="M110 292.004V321.16C110 339.306 110 348.372 113.536 355.303C116.647 361.399 121.606 366.366 127.711 369.472C134.645 373 143.726 373 161.86 373H402M110 292.004V130M110 292.004L172.51 239.983L172.562 239.941C183.87 230.531 189.535 225.816 195.677 223.901C202.934 221.639 210.75 221.997 217.772 224.906C223.725 227.372 228.944 232.585 239.383 243.009L239.488 243.114C250.089 253.701 255.404 259.008 261.452 261.469C268.609 264.38 276.577 264.631 283.912 262.201C290.131 260.141 295.811 255.186 307.168 245.262L401.996 162.4" stroke="white" stroke-width="20" stroke-linecap="round" stroke-linejoin="round"/>
</svg>
