<svg width="512" height="512" viewBox="0 0 512 512" fill="none" xmlns="http://www.w3.org/2000/svg">
<g filter="url(#filter0_d_1120_337)">
<path d="M6 162C6 105.995 6 77.9921 16.8993 56.6009C26.4867 37.7847 41.7847 22.4867 60.6009 12.8993C81.9921 2 109.995 2 166 2H346C402.005 2 430.008 2 451.399 12.8993C470.215 22.4867 485.513 37.7847 495.101 56.6009C506 77.9921 506 105.995 506 162V342C506 398.005 506 426.008 495.101 447.399C485.513 466.215 470.215 481.513 451.399 491.101C430.008 502 402.005 502 346 502H166C109.995 502 81.9921 502 60.6009 491.101C41.7847 481.513 26.4867 466.215 16.8993 447.399C6 426.008 6 398.005 6 342V162Z" fill="#FF894D"/>
</g>
<path d="M356 381C356 325.587 311.005 280.667 255.5 280.667C199.995 280.667 155 325.587 155 381M255.5 237.667C223.783 237.667 198.071 211.998 198.071 180.333C198.071 148.669 223.783 123 255.5 123C287.217 123 312.929 148.669 312.929 180.333C312.929 211.998 287.217 237.667 255.5 237.667Z" stroke="white" stroke-width="25" stroke-linecap="round" stroke-linejoin="round"/>
<defs>
<filter id="filter0_d_1120_337" x="0" y="0" width="512" height="512" filterUnits="userSpaceOnUse" color-interpolation-filters="sRGB">
<feFlood flood-opacity="0" result="BackgroundImageFix"/>
<feColorMatrix in="SourceAlpha" type="matrix" values="0 0 0 0 0 0 0 0 0 0 0 0 0 0 0 0 0 0 127 0" result="hardAlpha"/>
<feOffset dy="4"/>
<feGaussianBlur stdDeviation="3"/>
<feComposite in2="hardAlpha" operator="out"/>
<feColorMatrix type="matrix" values="0 0 0 0 0 0 0 0 0 0 0 0 0 0 0 0 0 0 0.25 0"/>
<feBlend mode="normal" in2="BackgroundImageFix" result="effect1_dropShadow_1120_337"/>
<feBlend mode="normal" in="SourceGraphic" in2="effect1_dropShadow_1120_337" result="shape"/>
</filter>
</defs>
</svg>
