<svg width="500" height="500" viewBox="0 0 500 500" fill="none" xmlns="http://www.w3.org/2000/svg">
<path d="M97 360H127.6M127.6 360H250M127.6 360V183.203C127.6 167.731 127.6 159.99 130.935 154.08C133.869 148.882 138.547 144.659 144.304 142.011C150.85 139 159.425 139 176.563 139H201.043C218.181 139 226.745 139 233.291 142.011C239.048 144.659 243.734 148.882 246.668 154.08C250 159.984 250 167.716 250 183.157V225.274M250 360H372.4M250 360V225.274M372.4 360H403M372.4 360V282.21C372.4 274.956 372.4 271.323 371.436 267.939C370.582 264.94 369.17 262.095 367.27 259.517C365.125 256.607 362.141 254.18 356.162 249.33L320.972 220.789C309.405 211.408 303.619 206.719 297.08 204.94C291.321 203.373 285.175 203.373 279.416 204.94C272.878 206.719 267.094 211.41 255.53 220.789L250 225.274" stroke="white" stroke-width="20" stroke-linecap="round" stroke-linejoin="round"/>
</svg>
