<svg width="512" height="512" viewBox="0 0 512 512" fill="none" xmlns="http://www.w3.org/2000/svg">
<g filter="url(#filter0_d_1120_343)">
<path d="M6 162C6 105.995 6 77.9921 16.8993 56.6009C26.4867 37.7847 41.7847 22.4867 60.6009 12.8993C81.9921 2 109.995 2 166 2H346C402.005 2 430.008 2 451.399 12.8993C470.215 22.4867 485.513 37.7847 495.101 56.6009C506 77.9921 506 105.995 506 162V342C506 398.005 506 426.008 495.101 447.399C485.513 466.215 470.215 481.513 451.399 491.101C430.008 502 402.005 502 346 502H166C109.995 502 81.9921 502 60.6009 491.101C41.7847 481.513 26.4867 466.215 16.8993 447.399C6 426.008 6 398.005 6 342V162Z" fill="#162F1B"/>
</g>
<path d="M277 362H154.6V185.203C154.6 169.731 154.6 161.99 157.935 156.08C160.869 150.882 165.547 146.659 171.304 144.011C177.85 141 186.425 141 203.563 141H228.043C245.181 141 253.745 141 260.291 144.011C266.048 146.659 270.734 150.882 273.668 156.08C277 161.984 277 169.716 277 185.157V227.274L282.53 222.789C294.094 213.41 299.878 208.719 306.416 206.94C312.175 205.373 318.321 205.373 324.08 206.94C330.619 208.719 336.405 213.408 347.972 222.789L383.162 251.33C389.141 256.18 392.125 258.607 394.27 261.517C396.17 264.095 397.582 266.94 398.436 269.939C399.4 273.323 399.4 276.956 399.4 284.21V362H277Z" fill="#162F1B"/>
<path d="M124 362H154.6M154.6 362H277M154.6 362V185.203C154.6 169.731 154.6 161.99 157.935 156.08C160.869 150.882 165.547 146.659 171.304 144.011C177.85 141 186.425 141 203.563 141H228.043C245.181 141 253.745 141 260.291 144.011C266.048 146.659 270.734 150.882 273.668 156.08C277 161.984 277 169.716 277 185.157V227.274M277 362H399.4M277 362V227.274M399.4 362H430M399.4 362V284.21C399.4 276.956 399.4 273.323 398.436 269.939C397.582 266.94 396.17 264.095 394.27 261.517C392.125 258.607 389.141 256.18 383.162 251.33L347.972 222.789C336.405 213.408 330.619 208.719 324.08 206.94C318.321 205.373 312.175 205.373 306.416 206.94C299.878 208.719 294.094 213.41 282.53 222.789L277 227.274" stroke="white" stroke-width="20" stroke-linecap="round" stroke-linejoin="round"/>
<defs>
<filter id="filter0_d_1120_343" x="0" y="0" width="512" height="512" filterUnits="userSpaceOnUse" color-interpolation-filters="sRGB">
<feFlood flood-opacity="0" result="BackgroundImageFix"/>
<feColorMatrix in="SourceAlpha" type="matrix" values="0 0 0 0 0 0 0 0 0 0 0 0 0 0 0 0 0 0 127 0" result="hardAlpha"/>
<feOffset dy="4"/>
<feGaussianBlur stdDeviation="3"/>
<feComposite in2="hardAlpha" operator="out"/>
<feColorMatrix type="matrix" values="0 0 0 0 0 0 0 0 0 0 0 0 0 0 0 0 0 0 0.25 0"/>
<feBlend mode="normal" in2="BackgroundImageFix" result="effect1_dropShadow_1120_343"/>
<feBlend mode="normal" in="SourceGraphic" in2="effect1_dropShadow_1120_343" result="shape"/>
</filter>
</defs>
</svg>
