<svg width="512" height="512" viewBox="0 0 512 512" fill="none" xmlns="http://www.w3.org/2000/svg">
<path d="M189 306.002V319.32C189 327.609 189 331.75 190.611 334.916C192.027 337.701 194.286 339.97 197.067 341.388C200.225 343 204.361 343 212.621 343H322M189 306.002V232M189 306.002L217.472 282.239L217.496 282.22C222.646 277.921 225.226 275.768 228.024 274.893C231.33 273.86 234.89 274.023 238.088 275.352C240.799 276.479 243.177 278.86 247.931 283.622L247.979 283.669C252.808 288.505 255.228 290.93 257.983 292.054C261.243 293.384 264.872 293.498 268.213 292.388C271.046 291.447 273.633 289.184 278.806 284.651L321.998 246.8" stroke="white" stroke-width="20" stroke-linecap="round" stroke-linejoin="round"/>
<path d="M143 246.33V326.832C143 343.693 143 352.129 146.283 358.569C149.172 364.234 153.777 368.836 159.445 371.722C165.883 375 174.315 375 191.153 375H335.847C352.685 375 361.105 375 367.543 371.722C373.211 368.836 377.832 364.234 380.72 358.569C384 352.136 384 343.712 384 326.885V246.33C384 238.287 383.993 234.263 383.014 230.52C382.147 227.203 380.724 224.064 378.797 221.228C376.623 218.027 373.6 215.373 367.543 210.077L295.243 146.854C283.997 137.021 278.374 132.106 272.046 130.236C266.47 128.588 260.527 128.588 254.951 130.236C248.627 132.105 243.013 137.015 231.784 146.834L159.46 210.077C153.403 215.373 150.381 218.027 148.207 221.228C146.28 224.064 144.846 227.203 143.979 230.52C143 234.263 143 238.287 143 246.33Z" stroke="white" stroke-width="20" stroke-linecap="round" stroke-linejoin="round"/>
</svg>
