<svg width="512" height="512" viewBox="0 0 512 512" fill="none" xmlns="http://www.w3.org/2000/svg">
<path d="M124 362H154.6M154.6 362H277M154.6 362V185.203C154.6 169.731 154.6 161.99 157.935 156.08C160.869 150.882 165.547 146.659 171.304 144.011C177.85 141 186.425 141 203.563 141H228.043C245.181 141 253.745 141 260.291 144.011C266.048 146.659 270.734 150.882 273.668 156.08C277 161.984 277 169.716 277 185.157V227.274M277 362H399.4M277 362V227.274M399.4 362H430M399.4 362V284.21C399.4 276.956 399.4 273.323 398.436 269.939C397.582 266.94 396.17 264.095 394.27 261.517C392.125 258.607 389.141 256.18 383.162 251.33L347.972 222.789C336.405 213.408 330.619 208.719 324.08 206.94C318.321 205.373 312.175 205.373 306.416 206.94C299.878 208.719 294.094 213.41 282.53 222.789L277 227.274" stroke="white" stroke-width="20" stroke-linecap="round" stroke-linejoin="round"/>
</svg>
