<svg width="500" height="500" viewBox="0 0 500 500" fill="none" xmlns="http://www.w3.org/2000/svg">
<path d="M183 304.002V317.32C183 325.609 183 329.75 184.611 332.916C186.027 335.701 188.286 337.97 191.067 339.388C194.225 341 198.361 341 206.621 341H316M183 304.002V230M183 304.002L211.472 280.239L211.496 280.22C216.646 275.921 219.226 273.768 222.024 272.893C225.33 271.86 228.89 272.023 232.088 273.352C234.799 274.479 237.177 276.86 241.931 281.622L241.979 281.669C246.808 286.505 249.228 288.93 251.983 290.054C255.243 291.384 258.872 291.498 262.213 290.388C265.046 289.447 267.633 287.184 272.806 282.651L315.998 244.8" stroke="white" stroke-width="20" stroke-linecap="round" stroke-linejoin="round"/>
<path d="M137 244.33V324.832C137 341.693 137 350.129 140.283 356.569C143.172 362.234 147.777 366.836 153.445 369.722C159.883 373 168.315 373 185.153 373H329.847C346.685 373 355.105 373 361.543 369.722C367.211 366.836 371.832 362.234 374.72 356.569C378 350.136 378 341.712 378 324.885V244.33C378 236.287 377.993 232.263 377.014 228.52C376.147 225.203 374.724 222.064 372.797 219.228C370.623 216.027 367.6 213.373 361.543 208.077L289.243 144.854C277.997 135.021 272.374 130.106 266.046 128.236C260.47 126.588 254.527 126.588 248.951 128.236C242.627 130.105 237.013 135.015 225.784 144.834L153.46 208.077C147.403 213.373 144.381 216.027 142.207 219.228C140.28 222.064 138.846 225.203 137.979 228.52C137 232.263 137 236.287 137 244.33Z" stroke="white" stroke-width="20" stroke-linecap="round" stroke-linejoin="round"/>
</svg>
