<svg width="500" height="500" viewBox="0 0 500 500" fill="none" xmlns="http://www.w3.org/2000/svg">
<path d="M213.224 306.125H140.099V379.25M271.724 189.125H344.849V116M134 203.8C142.2 183.504 155.929 165.916 173.627 153.034C191.325 140.152 212.3 132.49 234.134 130.925C255.967 129.36 277.789 133.951 297.143 144.177C316.498 154.403 332.581 169.857 343.592 188.776M350.955 291.457C342.755 311.753 329.026 329.341 311.328 342.223C293.63 355.105 272.677 362.757 250.843 364.322C229.009 365.887 207.17 361.297 187.815 351.071C168.461 340.845 152.366 325.394 141.355 306.475" stroke="white" stroke-width="25" stroke-linecap="round" stroke-linejoin="round"/>
</svg>
