<svg width="512" height="512" viewBox="0 0 512 512" fill="none" xmlns="http://www.w3.org/2000/svg">
<g filter="url(#filter0_d_1120_335)">
<path d="M6 162C6 105.995 6 77.9921 16.8993 56.6009C26.4867 37.7847 41.7847 22.4867 60.6009 12.8993C81.9921 2 109.995 2 166 2H346C402.005 2 430.008 2 451.399 12.8993C470.215 22.4867 485.513 37.7847 495.101 56.6009C506 77.9921 506 105.995 506 162V342C506 398.005 506 426.008 495.101 447.399C485.513 466.215 470.215 481.513 451.399 491.101C430.008 502 402.005 502 346 502H166C109.995 502 81.9921 502 60.6009 491.101C41.7847 481.513 26.4867 466.215 16.8993 447.399C6 426.008 6 398.005 6 342V162Z" fill="#007BFF"/>
</g>
<path d="M219.224 308.125H146.099V381.25M277.724 191.125H350.849V118M140 205.8C148.2 185.504 161.929 167.916 179.627 155.034C197.325 142.152 218.3 134.49 240.134 132.925C261.967 131.36 283.789 135.951 303.143 146.177C322.498 156.403 338.581 171.857 349.592 190.776M356.955 293.457C348.755 313.753 335.026 331.341 317.328 344.223C299.63 357.105 278.677 364.757 256.843 366.322C235.009 367.887 213.17 363.297 193.815 353.071C174.461 342.845 158.366 327.394 147.355 308.475" stroke="white" stroke-width="25" stroke-linecap="round" stroke-linejoin="round"/>
<defs>
<filter id="filter0_d_1120_335" x="0" y="0" width="512" height="512" filterUnits="userSpaceOnUse" color-interpolation-filters="sRGB">
<feFlood flood-opacity="0" result="BackgroundImageFix"/>
<feColorMatrix in="SourceAlpha" type="matrix" values="0 0 0 0 0 0 0 0 0 0 0 0 0 0 0 0 0 0 127 0" result="hardAlpha"/>
<feOffset dy="4"/>
<feGaussianBlur stdDeviation="3"/>
<feComposite in2="hardAlpha" operator="out"/>
<feColorMatrix type="matrix" values="0 0 0 0 0 0 0 0 0 0 0 0 0 0 0 0 0 0 0.25 0"/>
<feBlend mode="normal" in2="BackgroundImageFix" result="effect1_dropShadow_1120_335"/>
<feBlend mode="normal" in="SourceGraphic" in2="effect1_dropShadow_1120_335" result="shape"/>
</filter>
</defs>
</svg>
