<svg width="512" height="512" viewBox="0 0 512 512" fill="none" xmlns="http://www.w3.org/2000/svg">
<path d="M219.224 308.125H146.099V381.25M277.724 191.125H350.849V118M140 205.8C148.2 185.504 161.929 167.916 179.627 155.034C197.325 142.152 218.3 134.49 240.134 132.925C261.967 131.36 283.789 135.951 303.143 146.177C322.498 156.403 338.581 171.857 349.592 190.776M356.955 293.457C348.755 313.753 335.026 331.341 317.328 344.223C299.63 357.105 278.677 364.757 256.843 366.322C235.009 367.887 213.17 363.297 193.815 353.071C174.461 342.845 158.366 327.394 147.355 308.475" stroke="white" stroke-width="25" stroke-linecap="round" stroke-linejoin="round"/>
</svg>
