<svg width="512" height="512" viewBox="0 0 512 512" fill="none" xmlns="http://www.w3.org/2000/svg">
<path d="M201 324H288M201 280.5H288M332.413 179.913L287.094 134.594C282.081 129.581 279.569 127.069 276.644 125.276C274.049 123.686 271.213 122.515 268.254 121.804C265.753 121.204 263.145 121.05 259.005 121.013C257.62 121 256.062 121 254.283 121H189.403C173.161 121 165.034 121 158.831 124.161C153.374 126.941 148.941 131.374 146.161 136.831C143 143.034 143 151.161 143 167.403V335.603C143 351.844 143 359.961 146.161 366.164C148.941 371.621 153.374 376.062 158.831 378.842C165.028 382 173.146 382 189.356 382L299.645 382C315.855 382 323.96 382 330.157 378.842C335.614 376.062 340.062 371.621 342.842 366.164C346 359.967 346 351.862 346 335.652V212.722C346 210.944 345.998 209.385 345.986 208C345.948 203.861 345.793 201.24 345.193 198.739C344.482 195.78 343.306 192.951 341.716 190.356C339.923 187.43 337.429 184.929 332.413 179.913Z" stroke="white" stroke-width="20" stroke-linecap="round" stroke-linejoin="round"/>
<path d="M336.022 145.278H311.08V170M355.975 105.722H380.917V81M309 110.683C311.797 103.822 316.48 97.8756 322.516 93.5205C328.553 89.1653 335.707 86.575 343.154 86.0458C350.601 85.5167 358.044 87.0688 364.646 90.526C371.247 93.9832 376.733 99.2081 380.489 105.604M383 140.319C380.203 147.18 375.52 153.127 369.484 157.482C363.447 161.837 356.3 164.424 348.853 164.953C341.406 165.482 333.957 163.93 327.356 160.473C320.754 157.016 315.264 151.792 311.509 145.396" stroke="white" stroke-width="25" stroke-linecap="round" stroke-linejoin="round"/>
</svg>
