<svg width="500" height="500" viewBox="0 0 500 500" fill="none" xmlns="http://www.w3.org/2000/svg">
<path d="M195 322H282M195 278.5H282M326.413 177.913L281.094 132.594C276.081 127.581 273.569 125.069 270.644 123.276C268.049 121.686 265.213 120.515 262.254 119.804C259.753 119.204 257.145 119.05 253.005 119.013C251.62 119 250.062 119 248.283 119H183.403C167.161 119 159.034 119 152.831 122.161C147.374 124.941 142.941 129.374 140.161 134.831C137 141.034 137 149.161 137 165.403V333.603C137 349.844 137 357.961 140.161 364.164C142.941 369.621 147.374 374.062 152.831 376.842C159.028 380 167.146 380 183.356 380L293.645 380C309.855 380 317.96 380 324.157 376.842C329.614 374.062 334.062 369.621 336.842 364.164C340 357.967 340 349.862 340 333.652V210.722C340 208.944 339.998 207.385 339.986 206C339.948 201.861 339.793 199.24 339.193 196.739C338.482 193.78 337.306 190.951 335.716 188.356C333.923 185.43 331.429 182.929 326.413 177.913Z" stroke="white" stroke-width="20" stroke-linecap="round" stroke-linejoin="round"/>
<path d="M330.022 143.278H305.08V168M349.975 103.722H374.917V79M303 108.683C305.797 101.822 310.48 95.8756 316.516 91.5205C322.553 87.1653 329.707 84.575 337.154 84.0458C344.601 83.5167 352.044 85.0688 358.646 88.526C365.247 91.9832 370.733 97.2081 374.489 103.604M377 138.319C374.203 145.18 369.52 151.127 363.484 155.482C357.447 159.837 350.3 162.424 342.853 162.953C335.406 163.482 327.957 161.93 321.356 158.473C314.754 155.016 309.264 149.792 305.509 143.396" stroke="white" stroke-width="25" stroke-linecap="round" stroke-linejoin="round"/>
</svg>
