<svg width="500" height="500" viewBox="0 0 500 500" fill="none" xmlns="http://www.w3.org/2000/svg">
<path d="M206 322H293M206 278.5H293M337.413 177.913L292.094 132.594C287.081 127.581 284.569 125.069 281.644 123.276C279.049 121.686 276.213 120.515 273.254 119.804C270.753 119.204 268.145 119.05 264.005 119.013C262.62 119 261.062 119 259.283 119H194.403C178.161 119 170.034 119 163.831 122.161C158.374 124.941 153.941 129.374 151.161 134.831C148 141.034 148 149.161 148 165.403V333.603C148 349.844 148 357.961 151.161 364.164C153.941 369.621 158.374 374.062 163.831 376.842C170.028 380 178.146 380 194.356 380L304.645 380C320.855 380 328.96 380 335.157 376.842C340.614 374.062 345.062 369.621 347.842 364.164C351 357.967 351 349.862 351 333.652V210.722C351 208.944 350.998 207.385 350.986 206C350.948 201.861 350.793 199.24 350.193 196.739C349.482 193.78 348.306 190.951 346.716 188.356C344.923 185.43 342.429 182.929 337.413 177.913Z" stroke="white" stroke-width="20" stroke-linecap="round" stroke-linejoin="round"/>
</svg>
