<svg width="512" height="512" viewBox="0 0 512 512" fill="none" xmlns="http://www.w3.org/2000/svg">
<g filter="url(#filter0_d_1120_341)">
<path d="M6 162C6 105.995 6 77.9921 16.8993 56.6009C26.4867 37.7847 41.7847 22.4867 60.6009 12.8993C81.9921 2 109.995 2 166 2H346C402.005 2 430.008 2 451.399 12.8993C470.215 22.4867 485.513 37.7847 495.101 56.6009C506 77.9921 506 105.995 506 162V342C506 398.005 506 426.008 495.101 447.399C485.513 466.215 470.215 481.513 451.399 491.101C430.008 502 402.005 502 346 502H166C109.995 502 81.9921 502 60.6009 491.101C41.7847 481.513 26.4867 466.215 16.8993 447.399C6 426.008 6 398.005 6 342V162Z" fill="#FF894D"/>
</g>
<path d="M212 345H299M212 301.5H299M343.413 200.913L298.094 155.594C293.081 150.581 290.569 148.069 287.644 146.276C285.049 144.686 282.213 143.515 279.254 142.804C276.753 142.204 274.145 142.05 270.005 142.013C268.62 142 267.062 142 265.283 142H200.403C184.161 142 176.034 142 169.831 145.161C164.374 147.941 159.941 152.374 157.161 157.831C154 164.034 154 172.161 154 188.403V356.603C154 372.844 154 380.961 157.161 387.164C159.941 392.621 164.374 397.062 169.831 399.842C176.028 403 184.146 403 200.356 403L310.645 403C326.855 403 334.96 403 341.157 399.842C346.614 397.062 351.062 392.621 353.842 387.164C357 380.967 357 372.862 357 356.652V233.722C357 231.944 356.998 230.385 356.986 229C356.948 224.861 356.793 222.24 356.193 219.739C355.482 216.78 354.306 213.951 352.716 211.356C350.923 208.43 348.429 205.929 343.413 200.913Z" stroke="white" stroke-width="20" stroke-linecap="round" stroke-linejoin="round"/>
<defs>
<filter id="filter0_d_1120_341" x="0" y="0" width="512" height="512" filterUnits="userSpaceOnUse" color-interpolation-filters="sRGB">
<feFlood flood-opacity="0" result="BackgroundImageFix"/>
<feColorMatrix in="SourceAlpha" type="matrix" values="0 0 0 0 0 0 0 0 0 0 0 0 0 0 0 0 0 0 127 0" result="hardAlpha"/>
<feOffset dy="4"/>
<feGaussianBlur stdDeviation="3"/>
<feComposite in2="hardAlpha" operator="out"/>
<feColorMatrix type="matrix" values="0 0 0 0 0 0 0 0 0 0 0 0 0 0 0 0 0 0 0.25 0"/>
<feBlend mode="normal" in2="BackgroundImageFix" result="effect1_dropShadow_1120_341"/>
<feBlend mode="normal" in="SourceGraphic" in2="effect1_dropShadow_1120_341" result="shape"/>
</filter>
</defs>
</svg>
