<svg width="512" height="512" viewBox="0 0 512 512" fill="none" xmlns="http://www.w3.org/2000/svg">
<g filter="url(#filter0_d_1120_339)">
<path d="M6 162C6 105.995 6 77.9921 16.8993 56.6009C26.4867 37.7847 41.7847 22.4867 60.6009 12.8993C81.9921 2 109.995 2 166 2H346C402.005 2 430.008 2 451.399 12.8993C470.215 22.4867 485.513 37.7847 495.101 56.6009C506 77.9921 506 105.995 506 162V342C506 398.005 506 426.008 495.101 447.399C485.513 466.215 470.215 481.513 451.399 491.101C430.008 502 402.005 502 346 502H166C109.995 502 81.9921 502 60.6009 491.101C41.7847 481.513 26.4867 466.215 16.8993 447.399C6 426.008 6 398.005 6 342V162Z" fill="#FF894D"/>
</g>
<path d="M260.667 210.792V266.625M372.333 241.012C372.333 332.694 302.987 373.798 273.589 387.105L273.552 387.121C270.46 388.521 268.91 389.222 265.397 389.825C263.172 390.207 258.176 390.207 255.951 389.825C252.423 389.22 250.857 388.516 247.741 387.105C218.342 373.798 149 332.694 149 241.012V185.669C149 170.035 149 162.211 152.043 156.24C154.719 150.987 158.987 146.719 164.24 144.043C170.211 141 178.035 141 193.669 141H327.669C343.304 141 351.111 141 357.082 144.043C362.335 146.719 366.617 150.987 369.294 156.24C372.333 162.206 372.333 170.019 372.333 185.624V241.012ZM261.362 308.5V309.896L259.971 309.899V308.5H261.362Z" stroke="white" stroke-width="25" stroke-linecap="round" stroke-linejoin="round"/>
<defs>
<filter id="filter0_d_1120_339" x="0" y="0" width="512" height="512" filterUnits="userSpaceOnUse" color-interpolation-filters="sRGB">
<feFlood flood-opacity="0" result="BackgroundImageFix"/>
<feColorMatrix in="SourceAlpha" type="matrix" values="0 0 0 0 0 0 0 0 0 0 0 0 0 0 0 0 0 0 127 0" result="hardAlpha"/>
<feOffset dy="4"/>
<feGaussianBlur stdDeviation="3"/>
<feComposite in2="hardAlpha" operator="out"/>
<feColorMatrix type="matrix" values="0 0 0 0 0 0 0 0 0 0 0 0 0 0 0 0 0 0 0.25 0"/>
<feBlend mode="normal" in2="BackgroundImageFix" result="effect1_dropShadow_1120_339"/>
<feBlend mode="normal" in="SourceGraphic" in2="effect1_dropShadow_1120_339" result="shape"/>
</filter>
</defs>
</svg>
