<svg width="500" height="500" viewBox="0 0 500 500" fill="none" xmlns="http://www.w3.org/2000/svg">
<path d="M254.667 208.792V264.625M366.333 239.012C366.333 330.694 296.987 371.798 267.589 385.105L267.552 385.121C264.46 386.521 262.91 387.222 259.397 387.825C257.172 388.207 252.176 388.207 249.951 387.825C246.423 387.22 244.857 386.516 241.741 385.105C212.342 371.798 143 330.694 143 239.012V183.669C143 168.035 143 160.211 146.043 154.24C148.719 148.987 152.987 144.719 158.24 142.043C164.211 139 172.035 139 187.669 139H321.669C337.304 139 345.111 139 351.082 142.043C356.335 144.719 360.617 148.987 363.294 154.24C366.333 160.206 366.333 168.019 366.333 183.624V239.012ZM255.362 306.5V307.896L253.971 307.899V306.5H255.362Z" stroke="white" stroke-width="25" stroke-linecap="round" stroke-linejoin="round"/>
</svg>
