<svg width="512" height="512" viewBox="0 0 512 512" fill="none" xmlns="http://www.w3.org/2000/svg">
<path d="M260.667 210.792V266.625M372.333 241.012C372.333 332.694 302.987 373.798 273.589 387.105L273.552 387.121C270.46 388.521 268.91 389.222 265.397 389.825C263.172 390.207 258.176 390.207 255.951 389.825C252.423 389.22 250.857 388.516 247.741 387.105C218.342 373.798 149 332.694 149 241.012V185.669C149 170.035 149 162.211 152.043 156.24C154.719 150.987 158.987 146.719 164.24 144.043C170.211 141 178.035 141 193.669 141H327.669C343.304 141 351.111 141 357.082 144.043C362.335 146.719 366.617 150.987 369.294 156.24C372.333 162.206 372.333 170.019 372.333 185.624V241.012ZM261.362 308.5V309.896L259.971 309.899V308.5H261.362Z" stroke="white" stroke-width="25" stroke-linecap="round" stroke-linejoin="round"/>
</svg>
