<svg width="500" height="500" viewBox="0 0 500 500" fill="none" xmlns="http://www.w3.org/2000/svg">
<path d="M353.335 298.556H329.846C320.45 298.556 315.748 298.556 312.159 300.36C309.002 301.947 306.437 304.478 304.829 307.593C303 311.135 303 315.774 303 325.046V404.513C303 413.785 303 418.418 304.829 421.96C306.437 425.075 309.002 427.61 312.159 429.197C315.744 431 320.44 431 329.819 431H410.404C419.782 431 424.471 431 428.056 429.197C431.213 427.61 433.787 425.072 435.395 421.957C437.222 418.419 437.222 413.791 437.222 404.537V381.333M403.667 306.833L353.333 356.5V381.333H378.5L428.833 331.667M403.667 306.833L428.833 282L454 306.833L428.833 331.667M403.667 306.833L428.833 331.667" stroke="white" stroke-width="20" stroke-linecap="round" stroke-linejoin="round"/>
<path d="M244.094 132.594L289.413 177.913C294.429 182.929 296.923 185.43 298.716 188.356C300.306 190.951 301.482 193.78 302.193 196.739C302.793 199.24 302.948 201.861 302.986 206C302.998 207.385 303 208.944 303 210.722V333.652C303 349.862 303 357.967 299.842 364.164C297.062 369.621 292.614 374.062 287.157 376.842C280.96 380 272.855 380 256.645 380L146.356 380C130.146 380 122.028 380 115.831 376.842C110.374 374.062 105.941 369.621 103.161 364.164C100 357.961 100 349.844 100 333.603V165.403C100 149.161 100 141.034 103.161 134.831C105.941 129.374 110.374 124.941 115.831 122.161C122.034 119 130.161 119 146.403 119H211.283C213.062 119 214.62 119 216.005 119.013C220.145 119.05 222.753 119.204 225.254 119.804C228.213 120.515 231.049 121.686 233.644 123.276C236.569 125.069 239.081 127.581 244.094 132.594L244.094 132.594Z" stroke="white" stroke-width="20" stroke-linecap="round" stroke-linejoin="round"/>
<path d="M244.094 183.594L289.413 228.913C294.429 233.929 296.923 236.43 298.716 239.356C300.306 241.951 301.482 244.78 302.193 247.739C302.793 250.24 302.948 252.861 302.986 257C302.998 258.385 303 259.944 303 261.722V384.652C303 400.862 303 408.967 299.842 415.164C297.062 420.621 292.614 425.062 287.157 427.842C280.96 431 272.855 431 256.645 431L146.356 431C130.146 431 122.028 431 115.831 427.842C110.374 425.062 105.941 420.621 103.161 415.164C100 408.961 100 400.844 100 384.603V216.403C100 200.161 100 192.034 103.161 185.831C105.941 180.374 110.374 175.941 115.831 173.161C122.034 170 130.161 170 146.403 170H211.283C213.062 170 214.62 170 216.005 170.013C220.145 170.05 222.753 170.204 225.254 170.804C228.213 171.515 231.049 172.686 233.644 174.276C236.569 176.069 239.081 178.581 244.094 183.594L244.094 183.594Z" stroke="white" stroke-width="20" stroke-linecap="round" stroke-linejoin="round"/>
</svg>
