<svg width="512" height="512" viewBox="0 0 512 512" fill="none" xmlns="http://www.w3.org/2000/svg">
<g filter="url(#filter0_d_1120_360)">
<path d="M6 162C6 105.995 6 77.9921 16.8993 56.6009C26.4867 37.7847 41.7847 22.4867 60.6009 12.8993C81.9921 2 109.995 2 166 2H346C402.005 2 430.008 2 451.399 12.8993C470.215 22.4867 485.513 37.7847 495.101 56.6009C506 77.9921 506 105.995 506 162V342C506 398.005 506 426.008 495.101 447.399C485.513 466.215 470.215 481.513 451.399 491.101C430.008 502 402.005 502 346 502H166C109.995 502 81.9921 502 60.6009 491.101C41.7847 481.513 26.4867 466.215 16.8993 447.399C6 426.008 6 398.005 6 342V162Z" fill="#FF894D"/>
</g>
<path d="M359.333 383.333V358.5L409.667 308.833L434.833 284L460 308.833L434.833 333.667L384.5 383.333H359.333Z" fill="#FF894D"/>
<path d="M359.335 300.556H335.846C326.45 300.556 321.748 300.556 318.159 302.36C315.002 303.947 312.437 306.478 310.829 309.593C309 313.135 309 317.774 309 327.046V406.513C309 415.785 309 420.418 310.829 423.96C312.437 427.075 315.002 429.61 318.159 431.197C321.744 433 326.44 433 335.819 433H416.404C425.782 433 430.471 433 434.056 431.197C437.213 429.61 439.787 427.072 441.395 423.957C443.222 420.419 443.222 415.791 443.222 406.537V383.333M409.667 308.833L359.333 358.5V383.333H384.5L434.833 333.667M409.667 308.833L434.833 284L460 308.833L434.833 333.667M409.667 308.833L434.833 333.667" stroke="white" stroke-width="20" stroke-linecap="round" stroke-linejoin="round"/>
<path d="M250.094 134.594L295.413 179.913C300.429 184.929 302.923 187.43 304.716 190.356C306.306 192.951 307.482 195.78 308.193 198.739C308.793 201.24 308.948 203.861 308.986 208C308.998 209.385 309 210.944 309 212.722V335.652C309 351.862 309 359.967 305.842 366.164C303.062 371.621 298.614 376.062 293.157 378.842C286.96 382 278.855 382 262.645 382L152.356 382C136.146 382 128.028 382 121.831 378.842C116.374 376.062 111.941 371.621 109.161 366.164C106 359.961 106 351.844 106 335.603V167.403C106 151.161 106 143.034 109.161 136.831C111.941 131.374 116.374 126.941 121.831 124.161C128.034 121 136.161 121 152.403 121H217.283C219.062 121 220.62 121 222.005 121.013C226.145 121.05 228.753 121.204 231.254 121.804C234.213 122.515 237.049 123.686 239.644 125.276C242.569 127.069 245.081 129.581 250.094 134.594L250.094 134.594Z" fill="#FF894D" stroke="white" stroke-width="20" stroke-linecap="round" stroke-linejoin="round"/>
<path d="M250.094 185.594L295.413 230.913C300.429 235.929 302.923 238.43 304.716 241.356C306.306 243.951 307.482 246.78 308.193 249.739C308.793 252.24 308.948 254.861 308.986 259C308.998 260.385 309 261.944 309 263.722V386.652C309 402.862 309 410.967 305.842 417.164C303.062 422.621 298.614 427.062 293.157 429.842C286.96 433 278.855 433 262.645 433L152.356 433C136.146 433 128.028 433 121.831 429.842C116.374 427.062 111.941 422.621 109.161 417.164C106 410.961 106 402.844 106 386.603V218.403C106 202.161 106 194.034 109.161 187.831C111.941 182.374 116.374 177.941 121.831 175.161C128.034 172 136.161 172 152.403 172H217.283C219.062 172 220.62 172 222.005 172.013C226.145 172.05 228.753 172.204 231.254 172.804C234.213 173.515 237.049 174.686 239.644 176.276C242.569 178.069 245.081 180.581 250.094 185.594L250.094 185.594Z" fill="#FF894D" stroke="white" stroke-width="20" stroke-linecap="round" stroke-linejoin="round"/>
<defs>
<filter id="filter0_d_1120_360" x="0" y="0" width="512" height="512" filterUnits="userSpaceOnUse" color-interpolation-filters="sRGB">
<feFlood flood-opacity="0" result="BackgroundImageFix"/>
<feColorMatrix in="SourceAlpha" type="matrix" values="0 0 0 0 0 0 0 0 0 0 0 0 0 0 0 0 0 0 127 0" result="hardAlpha"/>
<feOffset dy="4"/>
<feGaussianBlur stdDeviation="3"/>
<feComposite in2="hardAlpha" operator="out"/>
<feColorMatrix type="matrix" values="0 0 0 0 0 0 0 0 0 0 0 0 0 0 0 0 0 0 0.25 0"/>
<feBlend mode="normal" in2="BackgroundImageFix" result="effect1_dropShadow_1120_360"/>
<feBlend mode="normal" in="SourceGraphic" in2="effect1_dropShadow_1120_360" result="shape"/>
</filter>
</defs>
</svg>
