<svg width="500" height="500" viewBox="0 0 500 500" fill="none" xmlns="http://www.w3.org/2000/svg">
<path d="M212.336 148H171.114C154.624 148 146.372 148 140.074 151.161C134.533 153.941 130.032 158.374 127.209 163.831C124 170.034 124 178.161 124 194.403V333.603C124 349.844 124 357.961 127.209 364.164C130.032 369.621 134.533 374.062 140.074 376.842C146.366 380 154.607 380 171.066 380H312.49C328.948 380 337.178 380 343.47 376.842C349.01 374.062 353.527 369.617 356.349 364.16C359.556 357.963 359.556 349.855 359.556 333.645V293M300.667 162.5L212.333 249.5V293H256.5L344.833 206M300.667 162.5L344.833 119L389 162.5L344.833 206M300.667 162.5L344.833 206" stroke="white" stroke-width="20" stroke-linecap="round" stroke-linejoin="round"/>
</svg>
