<svg width="512" height="512" viewBox="0 0 512 512" fill="none" xmlns="http://www.w3.org/2000/svg">
<path d="M218.333 295V251.5L306.667 164.5L350.833 121L395 164.5L350.833 208L262.5 295H218.333Z" fill="#FF894D"/>
<path d="M218.336 150H177.114C160.624 150 152.372 150 146.074 153.161C140.533 155.941 136.032 160.374 133.209 165.831C130 172.034 130 180.161 130 196.403V335.603C130 351.844 130 359.961 133.209 366.164C136.032 371.621 140.533 376.062 146.074 378.842C152.366 382 160.607 382 177.066 382H318.49C334.948 382 343.178 382 349.47 378.842C355.01 376.062 359.527 371.617 362.349 366.16C365.556 359.963 365.556 351.855 365.556 335.645V295M306.667 164.5L218.333 251.5V295H262.5L350.833 208M306.667 164.5L350.833 121L395 164.5L350.833 208M306.667 164.5L350.833 208" stroke="white" stroke-width="20" stroke-linecap="round" stroke-linejoin="round"/>
</svg>
