<svg width="512" height="512" viewBox="0 0 512 512" fill="none" xmlns="http://www.w3.org/2000/svg">
<path opacity="0.8" d="M253.094 91.5937L298.413 136.913C303.429 141.929 305.923 144.43 307.716 147.356C309.306 149.951 310.482 152.78 311.193 155.739C311.793 158.24 311.948 160.861 311.986 165C311.998 166.385 312 167.944 312 169.722V292.652C312 308.862 312 316.967 308.842 323.164C306.062 328.621 301.614 333.062 296.157 335.842C289.96 339 281.855 339 265.645 339L155.356 339C139.146 339 131.028 339 124.831 335.842C119.374 333.062 114.941 328.621 112.161 323.164C109 316.961 109 308.844 109 292.603V124.403C109 108.161 109 100.034 112.161 93.8311C114.941 88.3744 119.374 83.9412 124.831 81.1608C131.034 78 139.161 78 155.403 78H220.283C222.062 78 223.62 78 225.005 78.0126C229.145 78.0504 231.753 78.204 234.254 78.8043C237.213 79.5147 240.049 80.6863 242.644 82.2764C245.569 84.0692 248.081 86.5813 253.094 91.5937L253.094 91.5937Z" fill="#162F1B" stroke="white" stroke-width="20" stroke-linecap="round" stroke-linejoin="round"/>
<g filter="url(#filter0_d_1120_357)">
<path d="M6 162C6 105.995 6 77.9921 16.8993 56.6009C26.4867 37.7847 41.7847 22.4867 60.6009 12.8993C81.9921 2 109.995 2 166 2H346C402.005 2 430.008 2 451.399 12.8993C470.215 22.4867 485.513 37.7847 495.101 56.6009C506 77.9921 506 105.995 506 162V342C506 398.005 506 426.008 495.101 447.399C485.513 466.215 470.215 481.513 451.399 491.101C430.008 502 402.005 502 346 502H166C109.995 502 81.9921 502 60.6009 491.101C41.7847 481.513 26.4867 466.215 16.8993 447.399C6 426.008 6 398.005 6 342V162Z" fill="#162F1B"/>
</g>
<path d="M346.094 174.594L391.413 219.913C396.429 224.929 398.923 227.43 400.716 230.356C402.306 232.951 403.482 235.78 404.193 238.739C404.793 241.24 404.948 243.861 404.986 248C404.998 249.385 405 250.944 405 252.722V375.652C405 391.862 405 399.967 401.842 406.164C399.062 411.621 394.614 416.062 389.157 418.842C382.96 422 374.855 422 358.645 422L248.356 422C232.146 422 224.028 422 217.831 418.842C212.374 416.062 207.941 411.621 205.161 406.164C202 399.961 202 391.844 202 375.603V207.403C202 191.161 202 183.034 205.161 176.831C207.941 171.374 212.374 166.941 217.831 164.161C224.034 161 232.161 161 248.403 161H313.283C315.062 161 316.62 161 318.005 161.013C322.145 161.05 324.753 161.204 327.254 161.804C330.213 162.515 333.049 163.686 335.644 165.276C338.569 167.069 341.081 169.581 346.094 174.594L346.094 174.594Z" fill="#162F1B" stroke="white" stroke-width="20" stroke-linecap="round" stroke-linejoin="round"/>
<path d="M253.094 91.5937L298.413 136.913C303.429 141.929 305.923 144.43 307.716 147.356C309.306 149.951 310.482 152.78 311.193 155.739C311.793 158.24 311.948 160.861 311.986 165C311.998 166.385 312 167.944 312 169.722V292.652C312 308.862 312 316.967 308.842 323.164C306.062 328.621 301.614 333.062 296.157 335.842C289.96 339 281.855 339 265.645 339L155.356 339C139.146 339 131.028 339 124.831 335.842C119.374 333.062 114.941 328.621 112.161 323.164C109 316.961 109 308.844 109 292.603V124.403C109 108.161 109 100.034 112.161 93.8311C114.941 88.3744 119.374 83.9412 124.831 81.1608C131.034 78 139.161 78 155.403 78H220.283C222.062 78 223.62 78 225.005 78.0126C229.145 78.0504 231.753 78.204 234.254 78.8043C237.213 79.5147 240.049 80.6863 242.644 82.2764C245.569 84.0692 248.081 86.5813 253.094 91.5937L253.094 91.5937Z" fill="#162F1B" stroke="white" stroke-width="20" stroke-linecap="round" stroke-linejoin="round"/>
<path d="M301.094 134.594L346.413 179.913C351.429 184.929 353.923 187.43 355.716 190.356C357.306 192.951 358.482 195.78 359.193 198.739C359.793 201.24 359.948 203.861 359.986 208C359.998 209.385 360 210.944 360 212.722V335.652C360 351.862 360 359.967 356.842 366.164C354.062 371.621 349.614 376.062 344.157 378.842C337.96 382 329.855 382 313.645 382L203.356 382C187.146 382 179.028 382 172.831 378.842C167.374 376.062 162.941 371.621 160.161 366.164C157 359.961 157 351.844 157 335.603V167.403C157 151.161 157 143.034 160.161 136.831C162.941 131.374 167.374 126.941 172.831 124.161C179.034 121 187.161 121 203.403 121H268.283C270.062 121 271.62 121 273.005 121.013C277.145 121.05 279.753 121.204 282.254 121.804C285.213 122.515 288.049 123.686 290.644 125.276C293.569 127.069 296.081 129.581 301.094 134.594L301.094 134.594Z" fill="#162F1B" stroke="white" stroke-width="20" stroke-linecap="round" stroke-linejoin="round"/>
<defs>
<filter id="filter0_d_1120_357" x="0" y="0" width="512" height="512" filterUnits="userSpaceOnUse" color-interpolation-filters="sRGB">
<feFlood flood-opacity="0" result="BackgroundImageFix"/>
<feColorMatrix in="SourceAlpha" type="matrix" values="0 0 0 0 0 0 0 0 0 0 0 0 0 0 0 0 0 0 127 0" result="hardAlpha"/>
<feOffset dy="4"/>
<feGaussianBlur stdDeviation="3"/>
<feComposite in2="hardAlpha" operator="out"/>
<feColorMatrix type="matrix" values="0 0 0 0 0 0 0 0 0 0 0 0 0 0 0 0 0 0 0.25 0"/>
<feBlend mode="normal" in2="BackgroundImageFix" result="effect1_dropShadow_1120_357"/>
<feBlend mode="normal" in="SourceGraphic" in2="effect1_dropShadow_1120_357" result="shape"/>
</filter>
</defs>
</svg>
