<svg width="500" height="500" viewBox="0 0 500 500" fill="none" xmlns="http://www.w3.org/2000/svg">
<path opacity="0.8" d="M247.094 89.5937L292.413 134.913C297.429 139.929 299.923 142.43 301.716 145.356C303.306 147.951 304.482 150.78 305.193 153.739C305.793 156.24 305.948 158.861 305.986 163C305.998 164.385 306 165.944 306 167.722V290.652C306 306.862 306 314.967 302.842 321.164C300.062 326.621 295.614 331.062 290.157 333.842C283.96 337 275.855 337 259.645 337L149.356 337C133.146 337 125.028 337 118.831 333.842C113.374 331.062 108.941 326.621 106.161 321.164C103 314.961 103 306.844 103 290.603V122.403C103 106.161 103 98.0345 106.161 91.8311C108.941 86.3744 113.374 81.9412 118.831 79.1608C125.034 76 133.161 76 149.403 76H214.283C216.062 76 217.62 76 219.005 76.0126C223.145 76.0504 225.753 76.204 228.254 76.8043C231.213 77.5147 234.049 78.6863 236.644 80.2764C239.569 82.0692 242.081 84.5813 247.094 89.5937L247.094 89.5937Z" stroke="white" stroke-width="20" stroke-linecap="round" stroke-linejoin="round"/>
<path d="M340.094 172.594L385.413 217.913C390.429 222.929 392.923 225.43 394.716 228.356C396.306 230.951 397.482 233.78 398.193 236.739C398.793 239.24 398.948 241.861 398.986 246C398.998 247.385 399 248.944 399 250.722V373.652C399 389.862 399 397.967 395.842 404.164C393.062 409.621 388.614 414.062 383.157 416.842C376.96 420 368.855 420 352.645 420L242.356 420C226.146 420 218.028 420 211.831 416.842C206.374 414.062 201.941 409.621 199.161 404.164C196 397.961 196 389.844 196 373.603V205.403C196 189.161 196 181.034 199.161 174.831C201.941 169.374 206.374 164.941 211.831 162.161C218.034 159 226.161 159 242.403 159H307.283C309.062 159 310.62 159 312.005 159.013C316.145 159.05 318.753 159.204 321.254 159.804C324.213 160.515 327.049 161.686 329.644 163.276C332.569 165.069 335.081 167.581 340.094 172.594L340.094 172.594Z" stroke="white" stroke-width="20" stroke-linecap="round" stroke-linejoin="round"/>
<path d="M247.094 89.5937L292.413 134.913C297.429 139.929 299.923 142.43 301.716 145.356C303.306 147.951 304.482 150.78 305.193 153.739C305.793 156.24 305.948 158.861 305.986 163C305.998 164.385 306 165.944 306 167.722V290.652C306 306.862 306 314.967 302.842 321.164C300.062 326.621 295.614 331.062 290.157 333.842C283.96 337 275.855 337 259.645 337L149.356 337C133.146 337 125.028 337 118.831 333.842C113.374 331.062 108.941 326.621 106.161 321.164C103 314.961 103 306.844 103 290.603V122.403C103 106.161 103 98.0345 106.161 91.8311C108.941 86.3744 113.374 81.9412 118.831 79.1608C125.034 76 133.161 76 149.403 76H214.283C216.062 76 217.62 76 219.005 76.0126C223.145 76.0504 225.753 76.204 228.254 76.8043C231.213 77.5147 234.049 78.6863 236.644 80.2764C239.569 82.0692 242.081 84.5813 247.094 89.5937L247.094 89.5937Z" stroke="white" stroke-width="20" stroke-linecap="round" stroke-linejoin="round"/>
<path d="M295.094 132.594L340.413 177.913C345.429 182.929 347.923 185.43 349.716 188.356C351.306 190.951 352.482 193.78 353.193 196.739C353.793 199.24 353.948 201.861 353.986 206C353.998 207.385 354 208.944 354 210.722V333.652C354 349.862 354 357.967 350.842 364.164C348.062 369.621 343.614 374.062 338.157 376.842C331.96 380 323.855 380 307.645 380L197.356 380C181.146 380 173.028 380 166.831 376.842C161.374 374.062 156.941 369.621 154.161 364.164C151 357.961 151 349.844 151 333.603V165.403C151 149.161 151 141.034 154.161 134.831C156.941 129.374 161.374 124.941 166.831 122.161C173.034 119 181.161 119 197.403 119H262.283C264.062 119 265.62 119 267.005 119.013C271.145 119.05 273.753 119.204 276.254 119.804C279.213 120.515 282.049 121.686 284.644 123.276C287.569 125.069 290.081 127.581 295.094 132.594L295.094 132.594Z" stroke="white" stroke-width="20" stroke-linecap="round" stroke-linejoin="round"/>
</svg>
