<svg width="512" height="512" viewBox="0 0 512 512" fill="none" xmlns="http://www.w3.org/2000/svg">
<path d="M219 334H306M219 290.5H306M350.413 189.913L305.094 144.594C300.081 139.581 297.569 137.069 294.644 135.276C292.049 133.686 289.213 132.515 286.254 131.804C283.753 131.204 281.145 131.05 277.005 131.013C275.62 131 274.062 131 272.283 131H207.403C191.161 131 183.034 131 176.831 134.161C171.374 136.941 166.941 141.374 164.161 146.831C161 153.034 161 161.161 161 177.403V345.603C161 361.844 161 369.961 164.161 376.164C166.941 381.621 171.374 386.062 176.831 388.842C183.028 392 191.146 392 207.356 392L317.645 392C333.855 392 341.96 392 348.157 388.842C353.614 386.062 358.062 381.621 360.842 376.164C364 369.967 364 361.862 364 345.652V222.722C364 220.944 363.998 219.385 363.986 218C363.948 213.861 363.793 211.24 363.193 208.739C362.482 205.78 361.306 202.951 359.716 200.356C357.923 197.43 355.429 194.929 350.413 189.913Z" stroke="white" stroke-width="20" stroke-linecap="round" stroke-linejoin="round"/>
<path d="M317 111L346.5 140.5M346.5 140.5L376 170M346.5 140.5L317 170M346.5 140.5L376 111" stroke="white" stroke-width="20" stroke-linecap="round" stroke-linejoin="round"/>
</svg>
