<svg width="500" height="500" viewBox="0 0 500 500" fill="none" xmlns="http://www.w3.org/2000/svg">
<path d="M349 78L378.5 107.5M378.5 107.5L408 137M378.5 107.5L349 137M378.5 107.5L408 78" stroke="white" stroke-width="20" stroke-linecap="round" stroke-linejoin="round"/>
<path d="M239 337H326M239 293.5H326M370.413 192.913L325.094 147.594C320.081 142.581 317.569 140.069 314.644 138.276C312.049 136.686 309.213 135.515 306.254 134.804C303.753 134.204 301.145 134.05 297.005 134.013C295.62 134 294.062 134 292.283 134H227.403C211.161 134 203.034 134 196.831 137.161C191.374 139.941 186.941 144.374 184.161 149.831C181 156.034 181 164.161 181 180.403V348.603C181 364.844 181 372.961 184.161 379.164C186.941 384.621 191.374 389.062 196.831 391.842C203.028 395 211.146 395 227.356 395L337.645 395C353.855 395 361.96 395 368.157 391.842C373.614 389.062 378.062 384.621 380.842 379.164C384 372.967 384 364.862 384 348.652V225.722C384 223.944 383.998 222.385 383.986 221C383.948 216.861 383.793 214.24 383.193 211.739C382.482 208.78 381.306 205.951 379.716 203.356C377.923 200.43 375.429 197.929 370.413 192.913Z" stroke="white" stroke-width="20" stroke-linecap="round" stroke-linejoin="round"/>
<path d="M137 281H224M137 237.5H224M268.413 136.913L223.094 91.5937C218.081 86.5813 215.569 84.0692 212.644 82.2764C210.049 80.6863 207.213 79.5147 204.254 78.8043C201.753 78.204 199.145 78.0504 195.005 78.0126C193.62 78 192.062 78 190.283 78H125.403C109.161 78 101.034 78 94.8311 81.1608C89.3744 83.9412 84.9411 88.3744 82.1608 93.8311C79 100.034 79 108.161 79 124.403V292.603C79 308.844 79 316.961 82.1608 323.164C84.9412 328.621 89.3744 333.062 94.8311 335.842C101.028 339 109.146 339 125.356 339L235.645 339C251.855 339 259.96 339 266.157 335.842C271.614 333.062 276.062 328.621 278.842 323.164C282 316.967 282 308.862 282 292.652V169.722C282 167.944 281.998 166.385 281.986 165C281.948 160.861 281.793 158.24 281.193 155.739C280.482 152.78 279.306 149.951 277.716 147.356C275.923 144.43 273.429 141.929 268.413 136.913Z" stroke="white" stroke-width="20" stroke-linecap="round" stroke-linejoin="round"/>
<path d="M349 78L378.5 107.5M378.5 107.5L408 137M378.5 107.5L349 137M378.5 107.5L408 78" stroke="white" stroke-width="20" stroke-linecap="round" stroke-linejoin="round"/>
</svg>
