<svg width="500" height="500" viewBox="0 0 500 500" fill="none" xmlns="http://www.w3.org/2000/svg">
<path d="M213 332H300M213 288.5H300M344.413 187.913L299.094 142.594C294.081 137.581 291.569 135.069 288.644 133.276C286.049 131.686 283.213 130.515 280.254 129.804C277.753 129.204 275.145 129.05 271.005 129.013C269.62 129 268.062 129 266.283 129H201.403C185.161 129 177.034 129 170.831 132.161C165.374 134.941 160.941 139.374 158.161 144.831C155 151.034 155 159.161 155 175.403V343.603C155 359.844 155 367.961 158.161 374.164C160.941 379.621 165.374 384.062 170.831 386.842C177.028 390 185.146 390 201.356 390L311.645 390C327.855 390 335.96 390 342.157 386.842C347.614 384.062 352.062 379.621 354.842 374.164C358 367.967 358 359.862 358 343.652V220.722C358 218.944 357.998 217.385 357.986 216C357.948 211.861 357.793 209.24 357.193 206.739C356.482 203.78 355.306 200.951 353.716 198.356C351.923 195.43 349.429 192.929 344.413 187.913Z" stroke="white" stroke-width="20" stroke-linecap="round" stroke-linejoin="round"/>
<path d="M311 109L340.5 138.5M340.5 138.5L370 168M340.5 138.5L311 168M340.5 138.5L370 109" stroke="white" stroke-width="20" stroke-linecap="round" stroke-linejoin="round"/>
</svg>
