<svg width="512" height="512" viewBox="0 0 512 512" fill="none" xmlns="http://www.w3.org/2000/svg">
<path d="M355 80L384.5 109.5M384.5 109.5L414 139M384.5 109.5L355 139M384.5 109.5L414 80" stroke="white" stroke-width="20" stroke-linecap="round" stroke-linejoin="round"/>
<path d="M245 339H332M245 295.5H332M376.413 194.913L331.094 149.594C326.081 144.581 323.569 142.069 320.644 140.276C318.049 138.686 315.213 137.515 312.254 136.804C309.753 136.204 307.145 136.05 303.005 136.013C301.62 136 300.062 136 298.283 136H233.403C217.161 136 209.034 136 202.831 139.161C197.374 141.941 192.941 146.374 190.161 151.831C187 158.034 187 166.161 187 182.403V350.603C187 366.844 187 374.961 190.161 381.164C192.941 386.621 197.374 391.062 202.831 393.842C209.028 397 217.146 397 233.356 397L343.645 397C359.855 397 367.96 397 374.157 393.842C379.614 391.062 384.062 386.621 386.842 381.164C390 374.967 390 366.862 390 350.652V227.722C390 225.944 389.998 224.385 389.986 223C389.948 218.861 389.793 216.24 389.193 213.739C388.482 210.78 387.306 207.951 385.716 205.356C383.923 202.43 381.429 199.929 376.413 194.913Z" stroke="white" stroke-width="20" stroke-linecap="round" stroke-linejoin="round"/>
<path d="M143 283H230M143 239.5H230M274.413 138.913L229.094 93.5937C224.081 88.5813 221.569 86.0692 218.644 84.2764C216.049 82.6863 213.213 81.5147 210.254 80.8043C207.753 80.204 205.145 80.0504 201.005 80.0126C199.62 80 198.062 80 196.283 80H131.403C115.161 80 107.034 80 100.831 83.1608C95.3744 85.9412 90.9411 90.3744 88.1608 95.8311C85 102.034 85 110.161 85 126.403V294.603C85 310.844 85 318.961 88.1608 325.164C90.9412 330.621 95.3744 335.062 100.831 337.842C107.028 341 115.146 341 131.356 341L241.645 341C257.855 341 265.96 341 272.157 337.842C277.614 335.062 282.062 330.621 284.842 325.164C288 318.967 288 310.862 288 294.652V171.722C288 169.944 287.998 168.385 287.986 167C287.948 162.861 287.793 160.24 287.193 157.739C286.482 154.78 285.306 151.951 283.716 149.356C281.923 146.43 279.429 143.929 274.413 138.913Z" stroke="white" stroke-width="20" stroke-linecap="round" stroke-linejoin="round"/>
<path d="M355 80L384.5 109.5M384.5 109.5L414 139M384.5 109.5L355 139M384.5 109.5L414 80" stroke="white" stroke-width="20" stroke-linecap="round" stroke-linejoin="round"/>
</svg>
