<svg width="512" height="512" viewBox="0 0 512 512" fill="none" xmlns="http://www.w3.org/2000/svg">
<path d="M121 317.8V155.125C121 138.487 134.481 125 151.111 125H206.432C213.797 125 217.488 125 220.953 125.832C224.026 126.57 226.958 127.791 229.652 129.442C232.689 131.305 235.298 133.914 240.502 139.121L256.498 155.125H343.82C360.683 155.125 369.109 155.125 375.55 158.408C381.216 161.297 385.831 165.902 388.718 171.57C392 178.014 392 186.45 392 203.322L392 317.797C392 334.669 392 343.104 388.718 349.549C385.831 355.217 381.213 359.832 375.547 362.72C369.112 366 360.697 366 343.866 366H169.131C152.3 366 143.872 366 137.437 362.72C131.772 359.832 127.169 355.214 124.282 349.546C121 343.102 121 334.672 121 317.8Z" fill="#162F1B"/>
<path d="M121 155.125V317.8C121 334.672 121 343.102 124.282 349.546C127.169 355.214 131.772 359.832 137.437 362.72C143.872 366 152.3 366 169.131 366H343.866C360.697 366 369.112 366 375.547 362.72C381.213 359.832 385.831 355.217 388.718 349.549C392 343.104 392 334.669 392 317.797L392 203.322C392 186.45 392 178.014 388.718 171.57C385.831 165.902 381.216 161.297 375.55 158.408C369.109 155.125 360.683 155.125 343.82 155.125H256.498M121 155.125H256.498M121 155.125C121 138.487 134.481 125 151.111 125H206.432C213.797 125 217.488 125 220.953 125.832C224.026 126.57 226.958 127.791 229.652 129.442C232.689 131.305 235.298 133.914 240.502 139.121L256.498 155.125M301.655 305.755L276.7 280.788M248.971 290.688C228.184 290.688 211.332 273.828 211.332 253.031C211.332 232.234 228.184 215.375 248.971 215.375C269.758 215.375 286.609 232.234 286.609 253.031C286.609 273.828 269.758 290.688 248.971 290.688Z" stroke="white" stroke-width="20" stroke-linecap="round" stroke-linejoin="round"/>
</svg>
