<svg width="500" height="500" viewBox="0 0 500 500" fill="none" xmlns="http://www.w3.org/2000/svg">
<path d="M115 153.125V315.8C115 332.672 115 341.102 118.282 347.546C121.169 353.214 125.772 357.832 131.437 360.72C137.872 364 146.3 364 163.131 364H337.866C354.697 364 363.112 364 369.547 360.72C375.213 357.832 379.831 353.217 382.718 347.549C386 341.104 386 332.669 386 315.797L386 201.322C386 184.45 386 176.014 382.718 169.57C379.831 163.902 375.216 159.297 369.55 156.408C363.109 153.125 354.683 153.125 337.82 153.125H250.498M115 153.125H250.498M115 153.125C115 136.487 128.481 123 145.111 123H200.432C207.797 123 211.488 123 214.953 123.832C218.026 124.57 220.958 125.791 223.652 127.442C226.689 129.305 229.298 131.914 234.502 137.121L250.498 153.125M295.655 303.755L270.7 278.788M242.971 288.688C222.184 288.688 205.332 271.828 205.332 251.031C205.332 230.234 222.184 213.375 242.971 213.375C263.758 213.375 280.609 230.234 280.609 251.031C280.609 271.828 263.758 288.688 242.971 288.688Z" stroke="white" stroke-width="20" stroke-linecap="round" stroke-linejoin="round"/>
</svg>
