<svg width="512" height="512" viewBox="0 0 512 512" fill="none" xmlns="http://www.w3.org/2000/svg">
<path d="M167 246.705V315.114C167 329.442 167 336.611 169.788 342.084C172.241 346.897 176.152 350.808 180.966 353.26C186.433 356.046 193.594 356.046 207.894 356.046H330.773C345.073 356.046 352.223 356.046 357.69 353.26C362.504 350.808 366.428 346.897 368.881 342.084C371.667 336.616 371.667 329.458 371.667 315.158V246.705C371.667 239.87 371.661 236.45 370.83 233.27C370.093 230.451 368.884 227.784 367.248 225.374C365.402 222.654 362.835 220.398 357.691 215.897L296.291 162.172C286.74 153.816 281.965 149.64 276.591 148.05C271.856 146.65 266.808 146.65 262.073 148.05C256.703 149.638 251.935 153.811 242.399 162.155L180.978 215.897C175.834 220.398 173.268 222.654 171.422 225.374C169.786 227.784 168.568 230.451 167.831 233.27C167 236.45 167 239.87 167 246.705Z" fill="#162F1B"/>
<path d="M307.708 240.921L256.542 292.088L230.958 266.504M167 315.114V246.705C167 239.87 167 236.45 167.831 233.27C168.568 230.451 169.786 227.784 171.422 225.374C173.268 222.654 175.834 220.398 180.978 215.897L242.399 162.155C251.935 153.811 256.703 149.638 262.073 148.05C266.808 146.65 271.856 146.65 276.591 148.05C281.965 149.64 286.74 153.816 296.291 162.172L357.691 215.897C362.835 220.398 365.402 222.654 367.248 225.374C368.884 227.784 370.093 230.451 370.83 233.27C371.661 236.45 371.667 239.87 371.667 246.705V315.158C371.667 329.458 371.667 336.616 368.881 342.084C366.428 346.897 362.504 350.808 357.69 353.26C352.223 356.046 345.073 356.046 330.773 356.046H207.894C193.594 356.046 186.433 356.046 180.966 353.26C176.152 350.808 172.241 346.897 169.788 342.084C167 336.611 167 329.442 167 315.114Z" stroke="white" stroke-width="20" stroke-linecap="round" stroke-linejoin="round"/>
</svg>
