<svg width="512" height="512" viewBox="0 0 512 512" fill="none" xmlns="http://www.w3.org/2000/svg">
<g filter="url(#filter0_d_1120_347)">
<path d="M6 162C6 105.995 6 77.9921 16.8993 56.6009C26.4867 37.7847 41.7847 22.4867 60.6009 12.8993C81.9921 2 109.995 2 166 2H346C402.005 2 430.008 2 451.399 12.8993C470.215 22.4867 485.513 37.7847 495.101 56.6009C506 77.9921 506 105.995 506 162V342C506 398.005 506 426.008 495.101 447.399C485.513 466.215 470.215 481.513 451.399 491.101C430.008 502 402.005 502 346 502H166C109.995 502 81.9921 502 60.6009 491.101C41.7847 481.513 26.4867 466.215 16.8993 447.399C6 426.008 6 398.005 6 342V162Z" fill="#162F1B"/>
</g>
<path d="M167 246.705V315.114C167 329.442 167 336.611 169.788 342.084C172.241 346.897 176.152 350.808 180.966 353.26C186.433 356.046 193.594 356.046 207.894 356.046H330.773C345.073 356.046 352.223 356.046 357.69 353.26C362.504 350.808 366.428 346.897 368.881 342.084C371.667 336.616 371.667 329.458 371.667 315.158V246.705C371.667 239.87 371.661 236.45 370.83 233.27C370.093 230.451 368.884 227.784 367.248 225.374C365.402 222.654 362.835 220.398 357.691 215.897L296.291 162.172C286.74 153.816 281.965 149.64 276.591 148.05C271.856 146.65 266.808 146.65 262.073 148.05C256.703 149.638 251.935 153.811 242.399 162.155L180.978 215.897C175.834 220.398 173.268 222.654 171.422 225.374C169.786 227.784 168.568 230.451 167.831 233.27C167 236.45 167 239.87 167 246.705Z" fill="#162F1B"/>
<path d="M307.708 240.921L256.542 292.088L230.958 266.504M167 315.114V246.705C167 239.87 167 236.45 167.831 233.27C168.568 230.451 169.786 227.784 171.422 225.374C173.268 222.654 175.834 220.398 180.978 215.897L242.399 162.155C251.935 153.811 256.703 149.638 262.073 148.05C266.808 146.65 271.856 146.65 276.591 148.05C281.965 149.64 286.74 153.816 296.291 162.172L357.691 215.897C362.835 220.398 365.402 222.654 367.248 225.374C368.884 227.784 370.093 230.451 370.83 233.27C371.661 236.45 371.667 239.87 371.667 246.705V315.158C371.667 329.458 371.667 336.616 368.881 342.084C366.428 346.897 362.504 350.808 357.69 353.26C352.223 356.046 345.073 356.046 330.773 356.046H207.894C193.594 356.046 186.433 356.046 180.966 353.26C176.152 350.808 172.241 346.897 169.788 342.084C167 336.611 167 329.442 167 315.114Z" stroke="white" stroke-width="20" stroke-linecap="round" stroke-linejoin="round"/>
<defs>
<filter id="filter0_d_1120_347" x="0" y="0" width="512" height="512" filterUnits="userSpaceOnUse" color-interpolation-filters="sRGB">
<feFlood flood-opacity="0" result="BackgroundImageFix"/>
<feColorMatrix in="SourceAlpha" type="matrix" values="0 0 0 0 0 0 0 0 0 0 0 0 0 0 0 0 0 0 127 0" result="hardAlpha"/>
<feOffset dy="4"/>
<feGaussianBlur stdDeviation="3"/>
<feComposite in2="hardAlpha" operator="out"/>
<feColorMatrix type="matrix" values="0 0 0 0 0 0 0 0 0 0 0 0 0 0 0 0 0 0 0.25 0"/>
<feBlend mode="normal" in2="BackgroundImageFix" result="effect1_dropShadow_1120_347"/>
<feBlend mode="normal" in="SourceGraphic" in2="effect1_dropShadow_1120_347" result="shape"/>
</filter>
</defs>
</svg>
