<svg width="500" height="500" viewBox="0 0 500 500" fill="none" xmlns="http://www.w3.org/2000/svg">
<path d="M301.708 238.921L250.542 290.088L224.958 264.504M161 313.114V244.705C161 237.87 161 234.45 161.831 231.27C162.568 228.451 163.786 225.784 165.422 223.374C167.268 220.654 169.834 218.398 174.978 213.897L236.399 160.155C245.935 151.811 250.703 147.638 256.073 146.05C260.808 144.65 265.856 144.65 270.591 146.05C275.965 147.64 280.74 151.816 290.291 160.172L351.691 213.897C356.835 218.398 359.402 220.654 361.248 223.374C362.884 225.784 364.093 228.451 364.83 231.27C365.661 234.45 365.667 237.87 365.667 244.705V313.158C365.667 327.458 365.667 334.616 362.881 340.084C360.428 344.897 356.504 348.808 351.69 351.26C346.223 354.046 339.073 354.046 324.773 354.046H201.894C187.594 354.046 180.433 354.046 174.966 351.26C170.152 348.808 166.241 344.897 163.788 340.084C161 334.611 161 327.442 161 313.114Z" stroke="white" stroke-width="20" stroke-linecap="round" stroke-linejoin="round"/>
</svg>
