<svg width="512" height="512" viewBox="0 0 512 512" fill="none" xmlns="http://www.w3.org/2000/svg">
<path d="M298.094 134.594L343.413 179.913C348.429 184.929 350.923 187.43 352.716 190.356C354.306 192.951 355.482 195.78 356.193 198.739C356.793 201.24 356.948 203.861 356.986 208C356.998 209.385 357 210.944 357 212.722V335.652C357 351.862 357 359.967 353.842 366.164C351.062 371.621 346.614 376.062 341.157 378.842C334.96 382 326.855 382 310.645 382L200.356 382C184.146 382 176.028 382 169.831 378.842C164.374 376.062 159.941 371.621 157.161 366.164C154 359.961 154 351.844 154 335.603V167.403C154 151.161 154 143.034 157.161 136.831C159.941 131.374 164.374 126.941 169.831 124.161C176.034 121 184.161 121 200.403 121H265.283C267.062 121 268.62 121 270.005 121.013C274.145 121.05 276.753 121.204 279.254 121.804C282.213 122.515 285.049 123.686 287.644 125.276C290.569 127.069 293.081 129.581 298.094 134.594L298.094 134.594Z" fill="#FF894D" stroke="white" stroke-width="20" stroke-linecap="round" stroke-linejoin="round"/>
<path d="M256 212C278.091 212 296 229.909 296 252C296 274.091 278.091 292 256 292C233.909 292 216 274.091 216 252C216 229.909 233.909 212 256 212Z" fill="#FF894D"/>
<path d="M269.333 247.556L256 234.222M256 234.222L242.667 247.556M256 234.222V269.778M296 252C296 229.909 278.091 212 256 212C233.909 212 216 229.909 216 252C216 274.091 233.909 292 256 292C278.091 292 296 274.091 296 252Z" stroke="white" stroke-width="15" stroke-linecap="round" stroke-linejoin="round"/>
</svg>
