<svg width="512" height="512" viewBox="0 0 512 512" fill="none" xmlns="http://www.w3.org/2000/svg">
<g filter="url(#filter0_d_1120_358)">
<path d="M6 162C6 105.995 6 77.9921 16.8993 56.6009C26.4867 37.7847 41.7847 22.4867 60.6009 12.8993C81.9921 2 109.995 2 166 2H346C402.005 2 430.008 2 451.399 12.8993C470.215 22.4867 485.513 37.7847 495.101 56.6009C506 77.9921 506 105.995 506 162V342C506 398.005 506 426.008 495.101 447.399C485.513 466.215 470.215 481.513 451.399 491.101C430.008 502 402.005 502 346 502H166C109.995 502 81.9921 502 60.6009 491.101C41.7847 481.513 26.4867 466.215 16.8993 447.399C6 426.008 6 398.005 6 342V162Z" fill="#FF894D"/>
</g>
<path d="M298.094 134.594L343.413 179.913C348.429 184.929 350.923 187.43 352.716 190.356C354.306 192.951 355.482 195.78 356.193 198.739C356.793 201.24 356.948 203.861 356.986 208C356.998 209.385 357 210.944 357 212.722V335.652C357 351.862 357 359.967 353.842 366.164C351.062 371.621 346.614 376.062 341.157 378.842C334.96 382 326.855 382 310.645 382L200.356 382C184.146 382 176.028 382 169.831 378.842C164.374 376.062 159.941 371.621 157.161 366.164C154 359.961 154 351.844 154 335.603V167.403C154 151.161 154 143.034 157.161 136.831C159.941 131.374 164.374 126.941 169.831 124.161C176.034 121 184.161 121 200.403 121H265.283C267.062 121 268.62 121 270.005 121.013C274.145 121.05 276.753 121.204 279.254 121.804C282.213 122.515 285.049 123.686 287.644 125.276C290.569 127.069 293.081 129.581 298.094 134.594L298.094 134.594Z" fill="#FF894D" stroke="white" stroke-width="20" stroke-linecap="round" stroke-linejoin="round"/>
<path d="M256 212C278.091 212 296 229.909 296 252C296 274.091 278.091 292 256 292C233.909 292 216 274.091 216 252C216 229.909 233.909 212 256 212Z" fill="#FF894D"/>
<path d="M269.333 247.556L256 234.222M256 234.222L242.667 247.556M256 234.222V269.778M296 252C296 229.909 278.091 212 256 212C233.909 212 216 229.909 216 252C216 274.091 233.909 292 256 292C278.091 292 296 274.091 296 252Z" stroke="white" stroke-width="15" stroke-linecap="round" stroke-linejoin="round"/>
<defs>
<filter id="filter0_d_1120_358" x="0" y="0" width="512" height="512" filterUnits="userSpaceOnUse" color-interpolation-filters="sRGB">
<feFlood flood-opacity="0" result="BackgroundImageFix"/>
<feColorMatrix in="SourceAlpha" type="matrix" values="0 0 0 0 0 0 0 0 0 0 0 0 0 0 0 0 0 0 127 0" result="hardAlpha"/>
<feOffset dy="4"/>
<feGaussianBlur stdDeviation="3"/>
<feComposite in2="hardAlpha" operator="out"/>
<feColorMatrix type="matrix" values="0 0 0 0 0 0 0 0 0 0 0 0 0 0 0 0 0 0 0.25 0"/>
<feBlend mode="normal" in2="BackgroundImageFix" result="effect1_dropShadow_1120_358"/>
<feBlend mode="normal" in="SourceGraphic" in2="effect1_dropShadow_1120_358" result="shape"/>
</filter>
</defs>
</svg>
