<svg width="500" height="500" viewBox="0 0 500 500" fill="none" xmlns="http://www.w3.org/2000/svg">
<path d="M292.094 132.594L337.413 177.913C342.429 182.929 344.923 185.43 346.716 188.356C348.306 190.951 349.482 193.78 350.193 196.739C350.793 199.24 350.948 201.861 350.986 206C350.998 207.385 351 208.944 351 210.722V333.652C351 349.862 351 357.967 347.842 364.164C345.062 369.621 340.614 374.062 335.157 376.842C328.96 380 320.855 380 304.645 380L194.356 380C178.146 380 170.028 380 163.831 376.842C158.374 374.062 153.941 369.621 151.161 364.164C148 357.961 148 349.844 148 333.603V165.403C148 149.161 148 141.034 151.161 134.831C153.941 129.374 158.374 124.941 163.831 122.161C170.034 119 178.161 119 194.403 119H259.283C261.062 119 262.62 119 264.005 119.013C268.145 119.05 270.753 119.204 273.254 119.804C276.213 120.515 279.049 121.686 281.644 123.276C284.569 125.069 287.081 127.581 292.094 132.594L292.094 132.594Z" stroke="white" stroke-width="20" stroke-linecap="round" stroke-linejoin="round"/>
<path d="M263.333 245.556L250 232.222M250 232.222L236.667 245.556M250 232.222V267.778M290 250C290 227.909 272.091 210 250 210C227.909 210 210 227.909 210 250C210 272.091 227.909 290 250 290C272.091 290 290 272.091 290 250Z" stroke="white" stroke-width="15" stroke-linecap="round" stroke-linejoin="round"/>
</svg>
