<svg width="512" height="512" viewBox="0 0 512 512" fill="none" xmlns="http://www.w3.org/2000/svg">
<g filter="url(#filter0_d_1120_340)">
<path d="M6 162C6 105.995 6 77.9921 16.8993 56.6009C26.4867 37.7847 41.7847 22.4867 60.6009 12.8993C81.9921 2 109.995 2 166 2H346C402.005 2 430.008 2 451.399 12.8993C470.215 22.4867 485.513 37.7847 495.101 56.6009C506 77.9921 506 105.995 506 162V342C506 398.005 506 426.008 495.101 447.399C485.513 466.215 470.215 481.513 451.399 491.101C430.008 502 402.005 502 346 502H166C109.995 502 81.9921 502 60.6009 491.101C41.7847 481.513 26.4867 466.215 16.8993 447.399C6 426.008 6 398.005 6 342V162Z" fill="#162F1B"/>
</g>
<path d="M144.556 199.933C144.556 232.481 171.02 258.867 203.667 258.867C236.313 258.867 262.778 232.481 262.778 199.933C262.778 167.385 236.313 141 203.667 141C171.02 141 144.556 167.385 144.556 199.933Z" fill="#162F1B"/>
<path d="M381 361.999C381 336.339 356.327 314.509 321.889 306.419M292.333 362C292.333 329.452 252.636 303.067 203.667 303.067C154.697 303.067 115 329.452 115 362M292.333 258.867C324.979 258.867 351.444 232.481 351.444 199.933C351.444 167.385 324.979 141 292.333 141M203.667 258.867C171.02 258.867 144.556 232.481 144.556 199.933C144.556 167.385 171.02 141 203.667 141C236.313 141 262.778 167.385 262.778 199.933C262.778 232.481 236.313 258.867 203.667 258.867Z" stroke="white" stroke-width="20" stroke-linecap="round" stroke-linejoin="round"/>
<defs>
<filter id="filter0_d_1120_340" x="0" y="0" width="512" height="512" filterUnits="userSpaceOnUse" color-interpolation-filters="sRGB">
<feFlood flood-opacity="0" result="BackgroundImageFix"/>
<feColorMatrix in="SourceAlpha" type="matrix" values="0 0 0 0 0 0 0 0 0 0 0 0 0 0 0 0 0 0 127 0" result="hardAlpha"/>
<feOffset dy="4"/>
<feGaussianBlur stdDeviation="3"/>
<feComposite in2="hardAlpha" operator="out"/>
<feColorMatrix type="matrix" values="0 0 0 0 0 0 0 0 0 0 0 0 0 0 0 0 0 0 0.25 0"/>
<feBlend mode="normal" in2="BackgroundImageFix" result="effect1_dropShadow_1120_340"/>
<feBlend mode="normal" in="SourceGraphic" in2="effect1_dropShadow_1120_340" result="shape"/>
</filter>
</defs>
</svg>
