<svg width="512" height="512" viewBox="0 0 512 512" fill="none" xmlns="http://www.w3.org/2000/svg">
<path d="M381 361.999C381 336.339 356.327 314.509 321.889 306.419M292.333 362C292.333 329.452 252.636 303.067 203.667 303.067C154.697 303.067 115 329.452 115 362M292.333 258.867C324.979 258.867 351.444 232.481 351.444 199.933C351.444 167.385 324.979 141 292.333 141M203.667 258.867C171.02 258.867 144.556 232.481 144.556 199.933C144.556 167.385 171.02 141 203.667 141C236.313 141 262.778 167.385 262.778 199.933C262.778 232.481 236.313 258.867 203.667 258.867Z" stroke="white" stroke-width="20" stroke-linecap="round" stroke-linejoin="round"/>
</svg>
