<svg width="500" height="500" viewBox="0 0 500 500" fill="none" xmlns="http://www.w3.org/2000/svg">
<path d="M375 359.999C375 334.339 350.327 312.509 315.889 304.419M286.333 360C286.333 327.452 246.636 301.067 197.667 301.067C148.697 301.067 109 327.452 109 360M286.333 256.867C318.979 256.867 345.444 230.481 345.444 197.933C345.444 165.385 318.979 139 286.333 139M197.667 256.867C165.02 256.867 138.556 230.481 138.556 197.933C138.556 165.385 165.02 139 197.667 139C230.313 139 256.778 165.385 256.778 197.933C256.778 230.481 230.313 256.867 197.667 256.867Z" stroke="white" stroke-width="20" stroke-linecap="round" stroke-linejoin="round"/>
</svg>
